<svg width="1440" height="1611" viewBox="0 0 1440 1611" fill="none" xmlns="http://www.w3.org/2000/svg">
<g id="submission-english" clip-path="url(#clip0)">
<rect width="1440" height="1611" fill="white"/>
<g id="submission-chinese-contents">
<rect width="1327" height="1241" fill="black" fill-opacity="0" transform="translate(-3 370)"/>
<g id="aux templates">
<rect width="785.52" height="172.93" fill="black" fill-opacity="0" transform="translate(278 950)"/>
<g id="maka sink">
<rect width="673.81" height="55.6203" fill="black" fill-opacity="0" transform="translate(389.71 950)"/>
<g id="team-id">
<rect width="673.81" height="55.6203" fill="black" fill-opacity="0" transform="translate(389.71 950)"/>
<g id="Line">
<rect width="499.1" height="1.09" fill="black" fill-opacity="0" transform="translate(564.42 1004.53)"/>
<path id="path6 stroke" d="M564.42 1005.62H1063.52V1004.53H564.42V1005.62Z" fill="#737373"/>
</g>
<g id="Group">
<rect width="109.785" height="54.0742" fill="black" fill-opacity="0" transform="translate(389.71 950)"/>
<path id="Vector" d="M402.53 953.07C402.17 954.84 401.91 955.07 401.47 956.76C401.21 957.76 400.87 958.66 400.56 959.67C401.744 961.008 402.513 962.663 402.77 964.431C402.901 965.053 402.84 965.7 402.593 966.286C402.347 966.872 401.927 967.369 401.39 967.71C400.5 968.18 399.39 967.84 398.48 967.71L398.09 965.941C399 966.041 400.37 967.01 401.02 965.78C401.174 965.054 401.173 964.303 401.016 963.577C400.86 962.852 400.551 962.168 400.11 961.57C399.732 961.023 399.318 960.501 398.87 960.01C399.54 957.67 400.32 955.44 401 953.12H397.64V973.95H396.01V951.561H402.53V953.07ZM416.53 959C415.964 959.798 415.328 960.545 414.63 961.231C414.89 964.231 415.63 967.23 417.96 969.37L416.76 970.49C416.38 970.18 416.044 969.82 415.76 969.42C414.33 967.343 413.462 964.932 413.24 962.42C412.79 962.57 412.43 962.94 412.01 963.12C412.205 963.917 412.352 964.725 412.45 965.54C412.53 965.59 412.45 965.54 412.45 965.67C412.79 967.682 412.79 969.738 412.45 971.75C412.395 972.104 412.259 972.441 412.052 972.734C411.846 973.028 411.575 973.269 411.26 973.441C410.26 973.991 409.02 973.521 407.96 973.441L406.82 973.2L406.43 971.431C407.514 971.768 408.624 972.012 409.75 972.16C410.049 972.134 410.332 972.015 410.56 971.82C411.152 970.811 411.372 969.625 411.18 968.47L411 966.54H410.9C408.584 968.467 405.879 969.87 402.97 970.651L401.82 969.2C405.114 968.484 408.166 966.927 410.68 964.681C410.571 963.894 410.334 963.13 409.98 962.42C409.211 963.041 408.402 963.612 407.56 964.13C406.412 964.785 405.19 965.302 403.92 965.67L402.99 964.29C405.289 963.727 407.419 962.62 409.2 961.061C408.807 960.501 408.324 960.011 407.77 959.61C406.482 960.22 405.144 960.715 403.77 961.09L402.41 959.79C405.312 959.264 408.019 957.962 410.24 956.021H403.04V954.49H410.24C411.685 953.327 412.796 951.802 413.46 950.07L414.89 950.79C414.307 952.18 413.45 953.439 412.37 954.49H417.08V956.05H412.32C411.412 957.145 410.331 958.084 409.12 958.83C410.127 959.63 410.93 960.658 411.46 961.83C413.015 960.805 414.315 959.436 415.26 957.83L416.53 959ZM407.43 954.32C406.74 952.987 405.704 951.864 404.43 951.07L405.63 950.13C406.97 950.98 408.093 952.131 408.91 953.49L407.43 954.32Z" fill="#727171"/>
<path id="Vector_2" d="M425.57 974V960.2C424.86 961.255 424.031 962.224 423.1 963.09L421.59 962.09C424.87 959.52 426.59 955.8 427.67 952.09L428.22 950.29L429.65 950.89C429.313 952.136 428.905 953.361 428.43 954.56C428.06 955.49 427.65 956.69 427.18 957.56V973.94L425.57 974ZM428.57 972.31V970.8H433.2L434.2 961.07H430.3V959.56H434.3L434.92 953.66H429.82V952.12H444.56V953.66H436.74L436.11 959.54H443.03L442.14 970.8H445.66V972.34L428.57 972.31ZM441.18 961.08H435.95L434.95 970.8H440.36L441.18 961.08Z" fill="#727171"/>
<path id="Vector_3" d="M450.55 973.45L449.1 973.09C450.019 971.202 450.491 969.129 450.48 967.03L451.85 967.37C451.898 969.47 451.452 971.553 450.55 973.45V973.45ZM457.03 955.67C456.53 956.79 456.12 957.93 455.52 959C454.527 960.892 453.282 962.641 451.82 964.2C452.82 964.14 453.82 963.91 454.82 963.81C454.628 963.335 454.373 962.887 454.06 962.48L455.36 961.86C456.247 963.045 456.862 964.411 457.16 965.86L455.73 966.41C455.676 965.991 455.578 965.58 455.44 965.18C453.725 965.318 452.027 965.622 450.37 966.09L449.62 964.59C451.153 962.884 452.519 961.036 453.7 959.07C452.483 959.165 451.285 959.428 450.14 959.85L449.43 958.42C451.219 956.221 452.603 953.722 453.52 951.04L454.92 951.56C454.159 953.818 453.045 955.941 451.62 957.85C452.62 957.75 453.57 957.59 454.56 957.46C454.84 956.94 455.39 955.46 455.56 954.94L457.03 955.67ZM454.12 967.32C454.64 969.052 454.692 970.891 454.27 972.65H452.76C453.19 970.883 453.19 969.038 452.76 967.27L454.12 967.32ZM459.63 965.32C459.682 968.276 458.947 971.192 457.5 973.77L455.96 972.77C456.518 972 456.956 971.15 457.26 970.25L455.94 970.51C455.813 969.307 455.45 968.141 454.87 967.08L456.22 966.82C456.775 967.786 457.155 968.842 457.34 969.94C458.15 967.52 458.04 964.71 458.04 961.94V951.77C462.273 951.774 466.485 951.178 470.55 950L471.55 951.25C467.694 952.591 463.632 953.245 459.55 953.18V954.35H470.37V959.57H459.55L459.63 965.32ZM468.86 955.85H459.63V958.2H468.82L468.86 955.85ZM468.24 967.42V970.96H466.82V967.42H465.29V972.2H463.86V967.44H462.32V973.86H460.82V961.38H471.35V971.65C471.35 972.85 470.81 973.53 469.59 973.53H467.71L467.22 971.97C468.05 972.04 468.73 972.1 469.22 972.1C469.71 972.1 469.79 971.81 469.79 971.5V967.44L468.24 967.42ZM462.33 965.97H463.87V962.85H462.33V965.97ZM465.33 962.85V965.97H466.82V962.85H465.33ZM468.27 962.85V965.97H469.77V962.85H468.27Z" fill="#727171"/>
<path id="Vector_4" d="M484.07 964.87C483.933 967.353 483.513 969.812 482.82 972.2C482.667 972.578 482.409 972.904 482.075 973.139C481.742 973.373 481.347 973.506 480.94 973.521C480.06 973.551 479.181 973.473 478.32 973.29L477.8 971.601C478.737 971.915 479.721 972.071 480.71 972.061C480.94 971.961 481.23 971.831 481.28 971.601C481.735 969.91 482.069 968.188 482.28 966.45H477.62L478.51 962.45H475.82V960.91H485.03V962.45H480.22L479.6 964.941L484.07 964.87ZM484.07 951.54V958.891H477.59V951.51L484.07 951.54ZM482.46 953.07H479.21V957.36H482.46V953.07ZM488.38 961.26L488.28 959.99L490.39 959.86V957.311H487.55V965.09C487.663 967.345 487.245 969.596 486.33 971.66C485.94 972.42 485.33 973.151 484.95 973.931L483.44 972.931C485.072 971.073 485.952 968.673 485.91 966.2V963.681V955.771H489.81V950.28H491.4V952.2H497.09V953.731H491.42V955.731H498.55C498.402 957.046 498.131 958.345 497.74 959.61L496.26 959.22C496.47 958.59 496.62 957.971 496.78 957.271H491.97V959.481L495.61 959.141L495.71 960.49L492.02 960.86C492.02 961.45 491.76 962.36 492.54 962.57H496.6V963.92H492.13C491.707 963.836 491.317 963.632 491.007 963.332C490.696 963.032 490.479 962.65 490.38 962.231V961.061L488.38 961.26ZM487.08 972.731C488.8 971.561 489.87 970.33 489.87 968.2V965.32H491.4C491.48 967.32 491.58 969.81 490.52 971.53C489.913 972.447 489.156 973.255 488.28 973.92L487.08 972.731ZM496.96 971.37C497.72 971.37 497.96 969.291 497.96 967.941L499.42 968.51C499.05 969.92 498.82 972.99 496.84 972.78H495.49C495.293 972.78 495.098 972.738 494.919 972.657C494.739 972.576 494.579 972.459 494.448 972.312C494.318 972.164 494.22 971.99 494.162 971.802C494.104 971.614 494.086 971.415 494.11 971.22V965.22H495.62V970.521C495.54 971.041 495.62 971.3 496.11 971.3L496.96 971.37Z" fill="#727171"/>
<path id="Vector_5" d="M395.82 987.59H389.71V985.38H404.45V987.59H398.29V1004H395.82V987.59Z" fill="#727171"/>
<path id="Vector_6" d="M408.15 985.38H421.62V987.59H410.62V993.29H420.92V995.469H410.62V1001.81H422.06V1004H408.15V985.38Z" fill="#727171"/>
<path id="Vector_7" d="M431.6 985.38H434.25L441.85 1004H439.06L436.88 998.36H429.11L427.05 1004H424.45L431.6 985.38ZM436.13 996.38L434.13 991.24C433.609 989.979 433.182 988.683 432.85 987.36V987.36C432.605 988.57 432.27 989.759 431.85 990.92L429.85 996.38H436.13Z" fill="#727171"/>
<path id="Vector_8" d="M444.82 985.38H448.44L452.94 998.72C453.27 999.72 453.61 1000.72 453.79 1001.48H453.85C454.13 1000.48 454.37 999.84 454.85 998.48L459.4 985.37H462.6V1003.99H460.11L460.47 989.27V988.15V987.74H460.42L460.29 988.31L459.67 990.05L454.78 1004.05H452.57L447.03 987.75V988.19V990.27L447.32 1004H444.82V985.38Z" fill="#727171"/>
<path id="Vector_9" d="M476.22 985.38H478.69V1004H476.22V985.38Z" fill="#727171"/>
<path id="Vector_10" d="M484.15 985.38H490.54C493.17 985.38 493.87 985.51 495.25 986.11C496.014 986.478 496.695 986.999 497.25 987.64C498.821 989.593 499.616 992.057 499.48 994.56C499.48 998.56 498.03 1001.71 495.48 1003.06C494.037 1003.81 492.421 1004.15 490.8 1004.06H484.09L484.15 985.38ZM490.57 1001.81C491.857 1001.92 493.15 1001.68 494.31 1001.11C496.06 1000.11 496.99 997.81 496.99 994.53C497.113 992.77 496.668 991.017 495.72 989.53C495.306 988.944 494.761 988.461 494.13 988.12C493.22 987.66 492.57 987.549 490.52 987.549H486.59V1001.77L490.57 1001.81Z" fill="#727171"/>
</g>
</g>
</g>
<g id="x-text">
<rect width="785.04" height="56.9301" fill="black" fill-opacity="0" transform="translate(278 1066)"/>
<g id="Line_2">
<rect width="499.09" height="1.08" fill="black" fill-opacity="0" transform="translate(563.95 1121.85)"/>
<path id="path6 stroke_2" d="M563.95 1122.93H1063.04V1121.85H563.95V1122.93Z" fill="#737373"/>
</g>
<path id="Vector_11" d="M341.21 1087.12C338.402 1088.78 335.273 1089.83 332.03 1090.19L331.03 1088.68C334.271 1088.45 337.422 1087.51 340.26 1085.93L341.21 1087.12ZM335.15 1085.3V1073.05C334.403 1073.87 333.612 1074.64 332.78 1075.37L331.3 1074.37C333.234 1072.87 334.921 1071.08 336.3 1069.06C336.977 1068.1 337.551 1067.08 338.01 1066L339.5 1066.83C339.249 1067.36 338.962 1067.87 338.64 1068.36H348.93V1069.84C348.31 1070.84 347.71 1071.69 347.21 1072.44H350.93V1085.34L335.15 1085.3ZM345.29 1072.4C345.962 1071.6 346.555 1070.74 347.06 1069.83H337.73C337.12 1070.73 336.451 1071.59 335.73 1072.4H345.29ZM349.35 1076.25V1073.89H336.73V1076.25H349.35ZM336.73 1077.68V1080.02H349.34V1077.68H336.73ZM336.73 1083.82H349.34V1081.45H336.73V1083.82ZM353.52 1090.09C350.739 1088.5 347.643 1087.54 344.45 1087.28L345.36 1085.9C348.565 1086.23 351.669 1087.22 354.48 1088.79L353.52 1090.09Z" fill="#727171"/>
<path id="Vector_12" d="M368.25 1087.69C365.353 1089 362.256 1089.81 359.09 1090.09L358.21 1088.63C361.366 1088.46 364.465 1087.72 367.36 1086.45L368.25 1087.69ZM361.82 1070.87H368.92V1069.56H359.85V1068.11H368.92V1066.31H370.59V1068.11H379.73V1069.56H370.58V1070.83H377.65V1072.29H370.6V1073.72H380.98V1075.17H358.57V1073.72H368.89V1072.31H361.79L361.82 1070.87ZM377.92 1076.51V1085.87H361.73V1076.51H377.92ZM376.26 1077.97H363.26V1079.17H376.21L376.26 1077.97ZM363.26 1081.77H376.26V1080.56H363.31L363.26 1081.77ZM376.26 1084.42V1083.14H363.31V1084.42H376.26ZM380.83 1090.03C380.567 1089.96 380.315 1089.86 380.08 1089.72C377.434 1088.54 374.593 1087.86 371.7 1087.72C372.02 1087.27 372.25 1086.81 372.54 1086.36C375.69 1086.58 378.773 1087.38 381.64 1088.7C381.38 1089.18 381.12 1089.56 380.83 1090.03V1090.03Z" fill="#727171"/>
<path id="Vector_13" d="M388.86 1071.91V1070.35H394.98V1066.5H396.66V1070.32H402.15V1071.88H396.64V1076.17H397.97C401.031 1073.96 403.785 1071.36 406.16 1068.43L406.32 1068.5L407.46 1069.39C405.476 1071.87 403.237 1074.14 400.78 1076.15H407.85V1077.69H398.67C397.48 1078.6 395.67 1079.69 394.41 1080.48V1082.79C398.282 1082.58 402.05 1081.46 405.41 1079.52L406.41 1080.74C402.727 1082.81 398.625 1084.01 394.41 1084.27V1086.56C394.409 1086.7 394.438 1086.84 394.494 1086.97C394.551 1087.1 394.634 1087.21 394.737 1087.3C394.841 1087.4 394.963 1087.47 395.097 1087.51C395.23 1087.56 395.371 1087.57 395.51 1087.56H403.73C404.2 1087.45 404.64 1087.32 404.8 1086.75C405.087 1085.83 405.268 1084.88 405.34 1083.92C405.94 1083.92 406.44 1084.23 407.01 1084.33C406.808 1085.42 406.504 1086.49 406.1 1087.53C405.985 1088.04 405.679 1088.5 405.246 1088.79C404.812 1089.09 404.281 1089.22 403.76 1089.14H395.26C394.706 1089.15 394.168 1088.96 393.736 1088.61C393.304 1088.27 393.005 1087.78 392.89 1087.24L392.76 1086.57V1081.24C390.76 1082.17 388.57 1083.11 386.49 1083.86C386.13 1083.43 385.796 1082.98 385.49 1082.51C389.05 1081.26 392.48 1079.67 395.73 1077.76H386.94V1076.22H395V1071.93L388.86 1071.91Z" fill="#727171"/>
<path id="Vector_14" d="M415.23 1080.23H421.65V1089.56H420.01V1087.56H415.17V1089.56H413.59V1070.06H415.77C416.635 1068.92 417.264 1067.61 417.62 1066.22C418.131 1066.43 418.626 1066.68 419.1 1066.97C418.723 1068.08 418.169 1069.12 417.46 1070.06H421.13V1077.32H415.23V1080.23ZM419.52 1071.6H415.23V1075.79H419.52V1071.6ZM420.01 1081.77H415.23V1086.03H419.99L420.01 1081.77ZM427.84 1073.16V1069.41H421.94V1067.93H435.62V1069.43H429.53V1073.2H434.01V1083.65C434.01 1084.65 434.14 1085.78 433.23 1086.38C432.524 1086.68 431.754 1086.8 430.99 1086.72C430.76 1086.17 430.66 1085.58 430.42 1085.06C431.07 1084.98 432.09 1085.26 432.29 1084.85L432.37 1084.46V1074.81H429.56V1090.46H427.92V1074.81H425.12V1087.26H423.48V1073.26L427.84 1073.16Z" fill="#727171"/>
<path id="Vector_15" d="M441.78 1072.25V1074.75H440.16V1070.69H449.86V1069.32H441.54V1067.78H459.87V1069.32H451.53V1070.69H461.12V1074.59H459.43V1072.25H451.43V1077.61H449.82V1072.23L441.78 1072.25ZM451.45 1087.25C451.45 1087.64 451.63 1087.72 452.51 1087.72H459.43C459.703 1087.65 459.951 1087.5 460.144 1087.29C460.337 1087.09 460.467 1086.83 460.52 1086.55C460.7 1085.9 460.78 1085.12 460.94 1084.44L462.39 1084.91C462.11 1086.6 461.87 1089.28 459.85 1089.28H451.99C450.8 1089.28 449.99 1088.76 449.84 1087.67V1085.85H441.91V1078.56H459.46V1085.84H451.46L451.45 1087.25ZM448.61 1074.85H442.79V1073.47H448.61V1074.85ZM448.61 1076.04V1077.37H442.82V1076.02L448.61 1076.04ZM443.46 1080.13V1081.5H449.78V1080.15L443.46 1080.13ZM449.81 1084.34V1082.83H443.49V1084.34H449.81ZM457.81 1081.5V1080.1H451.37V1081.45L457.81 1081.5ZM457.81 1082.86H451.42V1084.37H457.79L457.81 1082.86ZM452.61 1073.49H458.61V1074.87H452.68L452.61 1073.49ZM458.54 1076.04V1077.37H452.61V1076.02L458.54 1076.04Z" fill="#727171"/>
<path id="Vector_16" d="M469.13 1078.62H466.37V1077.08H469.12V1074.15H470.7V1077.04H472.5V1078.58H470.73V1081.67H469.15L469.13 1078.62ZM479.86 1067.83C479.258 1068.25 478.579 1068.55 477.86 1068.71C476.825 1069.05 475.765 1069.31 474.69 1069.49V1071.75H480.49C480.52 1072.26 480.52 1072.78 480.49 1073.29H474.67V1082.68H480.47V1084.27H474.67V1087.08H475.47L480.15 1086.45V1088.01L475.15 1088.66L468.15 1089.66L467.3 1087.99C469.222 1087.9 471.138 1087.71 473.04 1087.42V1084.35H467.24V1082.81H473.01V1073.39H467.21V1071.83H472.98V1069.91C471.26 1070.04 469.52 1070.3 467.75 1070.27C467.55 1069.75 467.21 1069.27 467 1068.71C469.915 1068.7 472.82 1068.37 475.66 1067.71C476.769 1067.44 477.862 1067.11 478.93 1066.71L479.86 1067.83ZM478.7 1077.01H480.98V1078.55H478.73V1081.69H477.14V1078.56H475.32V1077H477.11V1074.14H478.73L478.7 1077.01ZM488.91 1069.23C488.08 1071.7 487.3 1074.15 486.44 1076.59C487.376 1077.45 488.12 1078.49 488.623 1079.66C489.126 1080.82 489.378 1082.08 489.36 1083.35C489.23 1083.96 488.946 1084.52 488.537 1084.98C488.127 1085.45 487.605 1085.8 487.02 1086C486.162 1086.17 485.278 1086.17 484.42 1086C484.26 1085.4 484 1084.86 483.9 1084.26C484.99 1084.44 486.76 1085.14 487.48 1083.82C487.776 1083.01 487.814 1082.12 487.59 1081.29C487.095 1079.6 486.097 1078.09 484.73 1076.98L487.28 1069.25H483.28V1090.08H481.67V1067.72H488.92L488.91 1069.23Z" fill="#727171"/>
<path id="Vector_17" d="M284.11 1103.91H278V1101.7H292.73V1103.91H286.56V1120.32H284.09L284.11 1103.91Z" fill="#727171"/>
<path id="Vector_18" d="M296.41 1101.7H309.88V1103.91H298.88V1109.56H309.18V1111.75H298.88V1118.09H310.32V1120.28H296.41V1101.7Z" fill="#727171"/>
<path id="Vector_19" d="M319.86 1101.7H322.52L330.11 1120.32H327.33L325.14 1114.68H317.37L315.31 1120.32H312.73L319.86 1101.7ZM324.39 1112.7L322.39 1107.55C321.868 1106.29 321.44 1105 321.11 1103.68H321.06C320.815 1104.89 320.48 1106.08 320.06 1107.24L318.01 1112.7H324.39Z" fill="#727171"/>
<path id="Vector_20" d="M348.91 1114.42C347.86 1118.42 345.14 1120.63 341.21 1120.63C337.44 1120.63 334.92 1119.15 333.57 1116.13C332.825 1114.48 332.443 1112.69 332.45 1110.88C332.45 1105.11 335.91 1101.39 341.24 1101.39C342.908 1101.29 344.557 1101.78 345.901 1102.77C347.245 1103.76 348.197 1105.2 348.59 1106.82L346.18 1107.39C345.29 1104.72 343.76 1103.49 341.18 1103.49C337.28 1103.49 334.99 1106.22 334.99 1110.85C334.99 1115.72 337.18 1118.52 340.99 1118.52C343.88 1118.52 345.77 1116.86 346.43 1113.79L348.91 1114.42Z" fill="#727171"/>
<path id="Vector_21" d="M353.01 1101.7H355.48V1109.34H365.16V1101.7H367.62V1120.32H365.16V1111.56H355.48V1120.32H353.01V1101.7Z" fill="#727171"/>
<path id="Vector_22" d="M372.8 1101.7H386.27V1103.91H375.27V1109.56H385.56V1111.75H375.27V1118.09H386.73V1120.28H372.8V1101.7Z" fill="#727171"/>
<path id="Vector_23" d="M391.21 1101.7H399.45C400.717 1101.6 401.991 1101.77 403.19 1102.19C404.082 1102.57 404.838 1103.21 405.358 1104.03C405.878 1104.85 406.136 1105.8 406.1 1106.77C406.1 1109.63 404.28 1111.37 400.85 1111.77V1111.83C401.453 1112.04 402.003 1112.38 402.46 1112.83C403.189 1113.53 403.828 1114.31 404.36 1115.17L407.61 1120.24H404.52L402.05 1116.36C401.475 1115.41 400.84 1114.5 400.15 1113.63C399.769 1113.14 399.302 1112.73 398.77 1112.41C398.101 1112.01 397.312 1111.85 396.54 1111.97H393.73V1120.24H391.26L391.21 1101.7ZM398.98 1109.92C400.003 1110.01 401.033 1109.85 401.98 1109.45C402.442 1109.2 402.832 1108.84 403.11 1108.39C403.388 1107.95 403.544 1107.44 403.563 1106.91C403.582 1106.39 403.464 1105.87 403.219 1105.41C402.975 1104.94 402.613 1104.55 402.17 1104.27C401.371 1103.87 400.481 1103.69 399.59 1103.75H393.73V1109.92H398.98Z" fill="#727171"/>
<path id="Vector_24" d="M419.26 1101.7H432.73V1103.91H421.73V1109.56H432.03V1111.75H421.73V1118.09H433.17V1120.28H419.26V1101.7Z" fill="#727171"/>
<path id="Vector_25" d="M437.51 1101.7H441.13L445.62 1115.04C445.96 1116.04 446.3 1117.04 446.48 1117.8H446.53C446.82 1116.8 447.05 1116.16 447.53 1114.8L452.08 1101.69H455.28V1120.31H452.73L453.1 1105.59V1104.47V1104.06V1104L452.97 1104.58L452.34 1106.32L447.46 1120.32H445.25L439.73 1104.01V1104.07V1104.51V1106.59L440.01 1120.32H437.49L437.51 1101.7Z" fill="#727171"/>
<path id="Vector_26" d="M465.41 1101.7H468.06L475.65 1120.32H472.87L470.69 1114.68H462.91L460.86 1120.32H458.26L465.41 1101.7ZM469.93 1112.7L467.98 1107.55C467.465 1106.29 467.041 1105 466.71 1103.68H466.66C466.415 1104.89 466.08 1106.08 465.66 1107.24L463.6 1112.7H469.93Z" fill="#727171"/>
<path id="Vector_27" d="M479.06 1101.7H481.53V1120.32H479.06V1101.7Z" fill="#727171"/>
<path id="Vector_28" d="M486.89 1101.7H489.36V1118.13H498.53V1120.32H486.89V1101.7Z" fill="#727171"/>
</g>
</g>
<g id="upload">
<rect width="440" height="96" fill="black" fill-opacity="0" transform="translate(468 1281)"/>
<g id="state /of=ok">
<rect width="419.894" height="75.7527" fill="black" fill-opacity="0" transform="translate(478.782 1291.56)"/>
<path id="path10 fill" d="M478.782 1312.07C478.782 1306.63 480.946 1301.41 484.799 1297.57C488.652 1293.72 493.877 1291.56 499.325 1291.56H878.133C883.581 1291.56 888.807 1293.72 892.659 1297.57C896.512 1301.41 898.676 1306.63 898.676 1312.07V1346.79C898.678 1349.48 898.148 1352.15 897.117 1354.64C896.085 1357.13 894.572 1359.39 892.664 1361.3C890.756 1363.21 888.492 1364.72 885.998 1365.75C883.505 1366.78 880.832 1367.31 878.133 1367.31H499.325C496.626 1367.31 493.954 1366.78 491.461 1365.75C488.967 1364.72 486.702 1363.21 484.794 1361.3C482.886 1359.39 481.374 1357.13 480.342 1354.64C479.311 1352.15 478.78 1349.48 478.782 1346.79V1312.07Z" fill="#4BC936"/>
<path id="Vector_29" d="M710.925 1304.27L681.057 1334.06L669.447 1322.48L660.318 1331.59L681.057 1352.27L720.053 1313.38L710.925 1304.27Z" fill="white"/>
</g>
<g id="state /of=uploading">
<rect width="419.894" height="76.1309" fill="black" fill-opacity="0" transform="translate(478.198 1291.18)"/>
<path id="path10 fill_2" d="M478.198 1312.07C478.198 1306.63 480.362 1301.41 484.215 1297.57C488.068 1293.72 493.293 1291.56 498.741 1291.56H877.549C882.997 1291.56 888.223 1293.72 892.075 1297.57C895.928 1301.41 898.092 1306.63 898.092 1312.07V1346.79C898.094 1349.48 897.564 1352.15 896.533 1354.64C895.501 1357.13 893.988 1359.39 892.08 1361.3C890.172 1363.21 887.908 1364.72 885.414 1365.75C882.921 1366.78 880.248 1367.31 877.549 1367.31H498.741C496.042 1367.31 493.37 1366.78 490.877 1365.75C488.383 1364.72 486.118 1363.21 484.21 1361.3C482.302 1359.39 480.79 1357.13 479.758 1354.64C478.727 1352.15 478.196 1349.48 478.198 1346.79V1312.07Z" fill="#F3EF8B"/>
<rect id="hint /for=text /positioner-style=&#34;font-size: 38px;text-align: center;font-family: Arial, sans-serif;line-height: 75px;display: block;&#34;" x="589.801" y="1291.18" width="196.689" height="75.6364" fill="#C4C4C4"/>
</g>
<g id="state /of=nothing">
<rect width="419.894" height="75.7527" fill="black" fill-opacity="0" transform="translate(478.782 1291.56)"/>
<g id="Rectangle 2">
<rect width="419.894" height="75.7527" fill="black" fill-opacity="0" transform="translate(478.782 1291.56)"/>
<path id="path10 fill_3" d="M897.948 1346.79V1346.79C897.95 1349.39 897.439 1351.96 896.444 1354.36C895.45 1356.76 893.99 1358.95 892.15 1360.79C890.31 1362.62 888.125 1364.08 885.72 1365.08C883.315 1366.07 880.737 1366.59 878.133 1366.59H499.325C496.722 1366.59 494.144 1366.07 491.739 1365.08C489.334 1364.08 487.149 1362.62 485.308 1360.79C483.468 1358.95 482.009 1356.77 481.015 1354.36C480.02 1351.96 479.508 1349.39 479.51 1346.79V1346.79V1312.07C479.51 1306.82 481.597 1301.79 485.313 1298.08C489.029 1294.37 494.069 1292.29 499.325 1292.29H878.133C883.389 1292.29 888.429 1294.37 892.145 1298.08C895.861 1301.79 897.948 1306.82 897.948 1312.07V1346.79Z" fill="white" stroke="#BEBEBE" stroke-width="1.45575"/>
</g>
<path id="&#228;&#184;&#138;&#232;&#188;&#137; UPLOAD" d="M606.345 1343.99H578.365V1340.26H589.749V1316.71C589.749 1316.37 589.725 1316.02 589.675 1315.68C589.651 1315.33 589.626 1314.99 589.601 1314.64C589.552 1314.35 589.527 1314.06 589.527 1313.79C589.527 1313.52 589.527 1313.31 589.527 1313.16L593.926 1313.61C593.926 1313.63 593.914 1313.75 593.889 1313.98C593.864 1314.17 593.84 1314.41 593.815 1314.68C593.79 1314.97 593.766 1315.28 593.741 1315.6C593.717 1315.9 593.704 1316.14 593.704 1316.34V1325.29H604.239V1329.02H593.704V1340.26H606.345V1343.99ZM638.835 1318.19L636.137 1320.59C636.137 1320.59 636.051 1320.44 635.878 1320.15C635.706 1319.83 635.459 1319.45 635.139 1319C634.769 1318.56 634.351 1318.05 633.882 1317.49C633.439 1316.92 632.958 1316.37 632.441 1315.82L634.696 1313.64C635.312 1314.11 635.878 1314.62 636.396 1315.16C636.938 1315.68 637.381 1316.16 637.726 1316.6C638.096 1317.04 638.379 1317.43 638.577 1317.75C638.774 1318.04 638.86 1318.19 638.835 1318.19ZM641.607 1341.44C641.534 1341.64 641.373 1341.99 641.127 1342.51C640.905 1343.03 640.622 1343.56 640.277 1344.1C639.956 1344.62 639.587 1345.09 639.168 1345.5C638.749 1345.92 638.281 1346.15 637.763 1346.17C637.049 1346.24 636.359 1346.06 635.694 1345.62C635.053 1345.2 634.486 1344.69 633.993 1344.1C633.426 1343.51 632.971 1342.93 632.626 1342.36C632.281 1341.77 632.047 1341.35 631.923 1341.11C631.061 1342.12 630.285 1342.93 629.595 1343.55C628.929 1344.19 628.35 1344.69 627.857 1345.06C627.291 1345.43 626.823 1345.7 626.453 1345.87C626.083 1346.07 625.812 1346.23 625.64 1346.35L623.015 1343.1H620.687V1346.17H617.064V1343.1H610.153V1340.51H617.064V1338.96H611.483V1329.68H617.064V1328.32H610.485V1325.88H617.064V1324.21H609.968V1321.22H616.991V1319H611.742V1316.05H616.991L616.917 1314.71C616.892 1314.54 616.867 1314.36 616.843 1314.16C616.818 1313.94 616.806 1313.74 616.806 1313.57C616.806 1313.37 616.793 1313.21 616.769 1313.09C616.769 1312.97 616.769 1312.89 616.769 1312.87L620.982 1313.05C620.982 1313.08 620.958 1313.19 620.909 1313.38C620.884 1313.56 620.859 1313.74 620.835 1313.94C620.81 1314.16 620.773 1314.37 620.724 1314.57C620.699 1314.76 620.687 1314.9 620.687 1314.97V1316.05H625.898V1319H620.687V1321.22H627.525L627.377 1317.67C627.254 1315.68 627.18 1314.33 627.155 1313.64C627.155 1312.93 627.155 1312.56 627.155 1312.53L631.11 1312.83C631.11 1312.88 631.086 1313.01 631.036 1313.24C631.012 1313.46 630.987 1313.73 630.962 1314.05C630.938 1314.37 630.913 1314.73 630.888 1315.12C630.864 1315.52 630.851 1315.89 630.851 1316.23L630.925 1321.22H640.573V1324.21H631.147C631.196 1325.18 631.283 1326.19 631.406 1327.25C631.529 1328.3 631.677 1329.3 631.849 1330.24C631.997 1331.18 632.145 1332 632.293 1332.72C632.465 1333.43 632.626 1333.94 632.773 1334.23C632.847 1334.01 633.008 1333.66 633.254 1333.2C633.5 1332.73 633.747 1332.14 633.993 1331.42C634.264 1330.73 634.535 1329.97 634.806 1329.13C635.102 1328.27 635.349 1327.34 635.546 1326.36L638.761 1328.13C638.663 1328.43 638.478 1328.99 638.207 1329.83C637.936 1330.67 637.603 1331.58 637.209 1332.57C636.815 1333.55 636.383 1334.54 635.915 1335.52C635.447 1336.51 634.954 1337.32 634.437 1337.96C634.486 1338.09 634.56 1338.3 634.659 1338.59C634.782 1338.86 634.954 1339.16 635.176 1339.48C635.373 1339.8 635.607 1340.13 635.878 1340.48C636.149 1340.82 636.457 1341.11 636.802 1341.33C637.098 1341.55 637.344 1341.57 637.542 1341.4C637.763 1341.2 637.961 1340.93 638.133 1340.59C638.256 1340.22 638.367 1339.85 638.466 1339.48C638.564 1339.11 638.626 1338.85 638.65 1338.7L641.607 1341.44ZM623.015 1336.63V1335.38H620.539V1336.63H623.015ZM617.175 1336.63V1335.38H614.588V1336.63H617.175ZM623.015 1333.27V1332.01H620.539V1333.27H623.015ZM617.175 1333.27V1332.01H614.588V1333.27H617.175ZM627.599 1340.51C627.821 1340.29 628.03 1340.1 628.227 1339.92C628.424 1339.73 628.621 1339.52 628.819 1339.29C629.016 1339.1 629.2 1338.86 629.373 1338.59C629.57 1338.3 629.816 1337.96 630.112 1337.59C630.038 1337.55 629.903 1337.2 629.706 1336.56C629.508 1335.89 629.287 1334.96 629.04 1333.75C628.794 1332.59 628.535 1331.2 628.264 1329.57C628.018 1327.95 627.833 1326.15 627.71 1324.18H620.687V1325.91H626.823V1328.32H620.687V1329.72H626.12V1338.96H620.687V1340.51H627.599ZM687.256 1339.55C688.192 1339.6 688.993 1339.42 689.659 1339C690.349 1338.58 690.891 1338.06 691.285 1337.45C691.655 1336.68 691.926 1335.87 692.098 1335.01C692.295 1334.12 692.394 1333.17 692.394 1332.16V1315.23H696.423V1332.38C696.423 1333.54 696.312 1334.75 696.09 1336.01C695.868 1337.26 695.425 1338.42 694.759 1339.48C694.069 1340.56 693.108 1341.46 691.876 1342.18C690.669 1342.87 689.129 1343.21 687.256 1343.21C685.383 1343.21 683.831 1342.87 682.599 1342.18C681.391 1341.46 680.443 1340.56 679.753 1339.48C679.087 1338.42 678.644 1337.26 678.422 1336.01C678.225 1334.72 678.126 1333.52 678.126 1332.38V1315.23H682.155V1332.16C682.155 1333.17 682.241 1334.12 682.414 1335.01C682.586 1335.87 682.87 1336.68 683.264 1337.45C683.634 1338.06 684.151 1338.57 684.817 1338.96C685.482 1339.36 686.295 1339.55 687.256 1339.55ZM717.122 1323.55C717.122 1324.98 716.838 1326.26 716.271 1327.39C715.705 1328.5 714.978 1329.39 714.091 1330.05C713.179 1330.69 712.169 1331.16 711.06 1331.46C709.976 1331.73 708.805 1331.87 707.548 1331.87H705.331V1328.1H707.474C708.312 1328.1 709.052 1328.03 709.692 1327.91C710.358 1327.79 710.9 1327.54 711.319 1327.17C711.836 1326.8 712.255 1326.31 712.575 1325.69C712.92 1325.05 713.093 1324.34 713.093 1323.55C713.093 1322.59 712.92 1321.82 712.575 1321.26C712.23 1320.69 711.811 1320.25 711.319 1319.93C710.826 1319.51 710.247 1319.22 709.581 1319.08C708.941 1318.93 708.325 1318.85 707.733 1318.85H704.517V1342.81H700.489V1315.23H707.659C708.842 1315.23 709.963 1315.38 711.023 1315.68C712.107 1315.97 713.093 1316.4 713.98 1316.97C714.941 1317.59 715.705 1318.45 716.271 1319.56C716.838 1320.67 717.122 1322 717.122 1323.55ZM734.753 1342.81H719.857V1315.23H723.886V1339.15H734.753V1342.81ZM754.047 1328.98C754.047 1327.5 753.862 1326.06 753.493 1324.66C753.148 1323.25 752.63 1322.07 751.94 1321.11C751.3 1320.15 750.523 1319.43 749.612 1318.97C748.7 1318.5 747.763 1318.26 746.802 1318.26C745.841 1318.26 744.893 1318.5 743.956 1318.97C743.045 1319.43 742.281 1320.15 741.665 1321.11C740.975 1322.07 740.445 1323.25 740.075 1324.66C739.706 1326.06 739.521 1327.5 739.521 1328.98C739.521 1330.49 739.706 1331.93 740.075 1333.31C740.445 1334.69 740.975 1335.86 741.665 1336.82C742.281 1337.78 743.045 1338.51 743.956 1339C744.893 1339.47 745.841 1339.7 746.802 1339.7C747.763 1339.7 748.7 1339.47 749.612 1339C750.523 1338.51 751.3 1337.78 751.94 1336.82C752.63 1335.86 753.148 1334.69 753.493 1333.31C753.862 1331.93 754.047 1330.49 754.047 1328.98ZM758.113 1328.98C758.113 1330.93 757.842 1332.8 757.3 1334.6C756.782 1336.4 756.018 1337.94 755.008 1339.22C753.998 1340.53 752.766 1341.52 751.312 1342.21C749.858 1342.88 748.355 1343.21 746.802 1343.21C745.225 1343.21 743.71 1342.88 742.256 1342.21C740.827 1341.52 739.607 1340.53 738.597 1339.22C737.586 1337.94 736.81 1336.4 736.268 1334.6C735.751 1332.8 735.492 1330.93 735.492 1328.98C735.492 1327.06 735.751 1325.2 736.268 1323.4C736.81 1321.6 737.586 1320.05 738.597 1318.74C739.607 1317.46 740.827 1316.48 742.256 1315.79C743.71 1315.07 745.225 1314.71 746.802 1314.71C748.355 1314.71 749.858 1315.07 751.312 1315.79C752.766 1316.48 753.998 1317.46 755.008 1318.74C756.018 1320.05 756.782 1321.6 757.3 1323.4C757.842 1325.2 758.113 1327.06 758.113 1328.98ZM779.625 1342.81H775.411L772.861 1334.53H764.766L762.29 1342.81H758.076L766.873 1315.23H770.828L779.625 1342.81ZM771.789 1330.87L768.869 1321.11L765.912 1330.87H771.789ZM785.687 1318.89V1339.15H787.905C788.348 1339.15 788.915 1339.12 789.605 1339.07C790.319 1339.02 790.874 1338.94 791.268 1338.81C791.786 1338.67 792.34 1338.37 792.931 1337.93C793.523 1337.48 794.077 1336.87 794.595 1336.08C795.137 1335.29 795.58 1334.33 795.925 1333.2C796.27 1332.04 796.443 1330.65 796.443 1329.02C796.443 1327.37 796.27 1325.98 795.925 1324.84C795.58 1323.71 795.137 1322.75 794.595 1321.96C794.077 1321.17 793.523 1320.55 792.931 1320.11C792.34 1319.64 791.786 1319.35 791.268 1319.22C790.874 1319.1 790.319 1319.01 789.605 1318.97C788.915 1318.92 788.348 1318.89 787.905 1318.89H785.687ZM781.695 1315.23H787.72C788.484 1315.23 789.297 1315.28 790.159 1315.38C791.022 1315.45 791.798 1315.56 792.488 1315.71C793.597 1316.01 794.619 1316.53 795.556 1317.27C796.492 1317.98 797.33 1318.88 798.069 1319.96C798.759 1321.02 799.326 1322.32 799.77 1323.84C800.213 1325.35 800.435 1327.07 800.435 1329.02C800.435 1330.94 800.213 1332.67 799.77 1334.19C799.326 1335.72 798.759 1337.02 798.069 1338.07C797.33 1339.16 796.492 1340.07 795.556 1340.81C794.619 1341.52 793.597 1342.03 792.488 1342.33C791.798 1342.47 791.022 1342.6 790.159 1342.7C789.297 1342.77 788.484 1342.81 787.72 1342.81H781.695V1315.23Z" fill="#555555"/>
</g>
<rect id="hint /for=click" x="468" y="1281" width="440" height="96" fill="url(#paint0_linear)" fill-opacity="0.01"/>
</g>
<g id="email /input">
<rect width="500" height="37" fill="black" fill-opacity="0" transform="translate(564 1086)"/>
<rect id="hint /for=input /type=email /style=&#34;font-size:28px;&#34;" x="564" y="1086" width="500" height="37" fill="#C4C4C4"/>
</g>
<g id="team-id /input">
<rect width="500" height="37" fill="black" fill-opacity="0" transform="translate(564 968)"/>
<rect id="hint /for=input /type=text /style=&#34;font-size:28px;&#34;" x="564" y="968" width="500" height="37" fill="#C4C4C4"/>
</g>
<g id="aux">
<rect width="1326.7" height="440" fill="black" fill-opacity="0" transform="translate(-3 370)"/>
<path id="Vector_30" d="M1323.7 370H-3V810H1323.7V370Z" fill="#E5002C"/>
<g id="Group_2">
<rect width="658.9" height="99.7" fill="black" fill-opacity="0" transform="translate(619 449.2)"/>
<path id="Vector_31" d="M626.8 478.6C632.5 481.5 637.8 485.2 642.8 489.8C639.6 492.8 636.1 496.4 633.8 500L633 499.1C628.8 494.3 624 491.1 619 487.8L626.8 478.6ZM638.6 505.1C641.2 508.6 644.6 510.9 648.5 513C644.5 524.9 639.6 536.9 631.8 547.3L630.5 546.2C627 543.2 623.4 540 619.1 537.5C621.1 535.4 622 534.2 623.2 532.7C628.4 525.7 634.1 514.9 638.1 504.2L638.6 505.1ZM633.1 452.1C638.9 455.1 644.2 459 649.3 463.5C645.9 465.9 642.6 469.3 640.4 473L639 471.7C634 467.1 629.8 464.9 624.3 461.7L633.1 452.1ZM684.6 464.7H708.5V494.8H717.2V509.4H687.6C693.3 522 706.5 530.1 718.6 535.6C714.4 539.6 711.1 543.8 708.6 548.6C702.8 545.7 697.3 541.8 692.2 537.3C687.2 532.9 683.2 528.2 679.8 523C678.7 524.7 677.9 526.3 676.7 528.1C670.9 536.8 661.6 543.1 652.7 547.6L650.2 548.6C647.8 544.3 644.2 540.4 640.2 537.1C652.7 532.9 666.9 523.7 669.2 509.6H644.7V495H669.7V479.2H651.1L651 464.9H669.7V455.4C669.7 453.3 667.8 453.6 667.8 452.3C667.8 451.4 668.4 451 669.7 451L684.7 451.1V464.7H684.6ZM694.1 479H684.6V494.8H694.1V479Z" fill="white"/>
<path id="Vector_32" d="M751.7 512.4C748.8 514.4 744.3 516.7 740.3 518C738.2 513.9 735 508.8 731.8 505.9C739.7 504.1 748 500.9 753.1 497.1L734.4 496.9V487.1H760.9V485.3H746V477.2H760.9V475.1H750.4V467.4H760.9V465H748.9V475.7H735V455.9H773.4L770.5 451.1L786.2 449.2C787.3 451.3 788.2 453.6 789.1 455.9H826.6V476H812.6V465H800.9V467.4H811V475.1H800.9V477.2H815V485.3H801V487.1H827.3V496.9H810.8C816.4 501.4 823.3 504.5 829.8 506.5C826.2 509.9 823.5 513 820.8 518.3C817 516.4 813.9 514.7 810.1 511.8V534.6C812.9 535.9 819.2 538 824.7 539.3C820.9 541.1 815.2 545.3 812.7 548.9C804.8 546.3 796.7 542 790 537.4L795.9 535.7L765.5 535.5L771.8 537.7C767.7 540.2 759.8 545.1 748.7 548.5C746.4 545.1 741 541.5 737.2 538.4C742 537.5 746.9 536.9 751.3 534.8L751.7 512.4ZM795.7 507.3H766.1V509.1H795.7V507.3ZM795.7 516.2H766.1V518H795.7V516.2ZM795.7 525.2H766.1V527.1H795.7V525.2ZM769.1 496.9L767.3 498.9H795.7L794.2 496.9H769.1ZM787.2 465H774.9V467.4H787.2V465ZM787.2 475.1H774.9V477.2H787.2V475.1ZM787.2 485.3H774.9V487.1H787.2V485.3Z" fill="white"/>
<path id="Vector_33" d="M938.3 524.9H909.4V547.2H894.6V485.6C891.2 492 885.5 498.9 879.3 504.2C878.3 501.9 874.9 497.5 873.1 495.4V547.3H859.3V500.2C856.8 503.6 852.9 507.5 849.6 510.2C848 504.2 845.9 499.4 842.7 495.4C855.5 482.2 862.1 466.5 867.6 450.2L881.6 454.4C879.3 462.6 876.3 470.5 873.1 477.8V489.6C884.1 478.4 889.5 464.1 894.2 450.1L908.5 453.5C907 458.7 905.1 463.6 903 468.6H941.1V483.1H909.4V490.3H938.2V503.6H909.4V511.4H938.3V524.9V524.9Z" fill="white"/>
<path id="Vector_34" d="M988.3 546.9V542.2H974.2V546.8H960.4L960.3 499.3H1002.5V546.9H988.3V546.9ZM1020.9 495.3V491.4H987.8V495.1H973.8V451.9H1035V495.2H1020.9V495.3ZM974.2 511.8V529.1H988.3V511.8H974.2ZM987.8 464.5V478.4H1020.9V464.5H987.8ZM1034.7 546.9L1034.6 542.2H1020.6V546.8H1006.6V499.3H1048.7V546.9H1034.7V546.9ZM1020.7 511.8V529.1H1034.8V511.8H1020.7Z" fill="white"/>
<path id="Vector_35" d="M1105.8 482.8H1096.1V492.1C1099 491.4 1101.7 490.3 1104.7 489.6V503.4L1096.1 506.7V536.6L1096.5 535.9C1102.9 526.4 1105.8 515.8 1106.6 504.1H1105.6V490.8H1165.1V504.1H1139.9V510.5H1160.4L1160.3 522.9H1140V530.2C1146.2 532.2 1153.6 531.2 1160.5 531.3L1167.7 530.5C1165.2 534.9 1163.8 540.3 1164.2 545.8H1143C1132.4 545.8 1122.5 541.3 1114.8 532.9C1112.3 538.2 1109.4 543.1 1104.9 547.3C1101.7 544.9 1098.6 542.6 1094.9 541.4C1091.2 546.9 1083.5 546.7 1077.2 547C1077.2 540.9 1076.1 536.4 1072.8 532L1080.6 532.4C1081.6 532.5 1081.9 531.9 1082 530.9V512.7C1078.9 513.6 1075.8 515.1 1072.8 516.3C1071.4 510.9 1070.3 505.2 1068.8 499.8L1081.9 496.1V482.7L1069.7 482.6L1069.8 469H1081.9V453.2C1081.6 452 1079 452.1 1080 450.4C1080.3 450.1 1080.7 449.9 1081.1 449.9H1096.1L1096.2 469H1105.9V482.8H1105.8ZM1108.3 488.2V451.2H1158.5V488.2H1108.3ZM1125.6 504.1H1109.9L1120.6 506.4L1119.2 516.6C1120.6 519.4 1122.9 521.9 1125.7 523.9V504.1H1125.6ZM1144.5 464.4V462.1H1122.3V464.4H1144.5ZM1144.5 477.1V474.8H1122.3V477.1H1144.5Z" fill="white"/>
<path id="Vector_36" d="M1253.8 500.1C1250.2 506.8 1245.7 514.5 1240.3 519.7C1247.9 525.4 1265.3 531.1 1277.9 533.7C1273.7 537.7 1271.2 542.4 1269 547C1253.3 543 1243.2 539.4 1229.8 530C1218.1 538.8 1205.2 543.8 1191.3 547C1188.9 542.3 1185.7 537.2 1182.1 532.8C1195.2 530.6 1207.4 526.6 1218.1 518.9C1213.3 513.4 1208.7 507 1205.4 501L1217.5 493.6C1220.6 499.4 1224.4 504.7 1229.1 509.9C1234.9 504.4 1237.9 499 1241.7 492.4L1253.8 500.1ZM1251.4 475.5C1258.6 483.9 1267.7 489.2 1276.8 493.2C1272.8 496.4 1268.9 500.5 1266.3 505C1250.9 498.5 1241.1 487.2 1236.3 480.5L1244.3 475.8L1216.4 475.6L1221.6 478.5C1215.8 488.5 1204.9 500.6 1194.1 506.5C1190.7 501 1187.5 498.9 1182.4 496.3C1191.2 491.3 1199.7 484.1 1206.3 475.6H1182.2V461.1H1222.6C1221.2 458.2 1219.3 455.4 1217.4 452.6L1233.2 449.5L1239.7 461H1277.3V475.5H1251.4Z" fill="white"/>
</g>
<g id="Group_3">
<rect width="615.6" height="53.9" fill="black" fill-opacity="0" transform="translate(621.3 587.3)"/>
<path id="Vector_37" d="M621.3 588.1H656.4V594.3H628.2V610.4H652.6V616.5H628.2V640.1H621.3V588.1V588.1Z" fill="white"/>
<path id="Vector_38" d="M664.9 588.1H671.3V595.4H664.9V588.1ZM664.9 602.5H671.3V640.2H664.9V602.5Z" fill="white"/>
<path id="Vector_39" d="M681 602.5H686.7V607.8H686.8C689.4 603.7 693.6 601.6 698.7 601.6C703.7 601.6 708 603.7 709.9 607.1C711.4 609.7 711.6 611 711.6 616.9V640.1H705.2V617.2C705.2 613.1 704.9 611.8 703.7 610.1C702.5 608.2 700 607.1 697.2 607.1C693.5 607.1 690 609 688.5 611.8C687.6 613.7 687.2 615.9 687.2 619.5V640.1H680.8V602.5H681Z" fill="white"/>
<path id="Vector_40" d="M747.3 640.1C746.6 638.6 746.2 637.4 746 635.4C741.5 639.3 737.3 640.9 732.1 640.9C724.2 640.9 719.2 636.7 719.2 630.1C719.2 624.9 722.5 620.9 728.2 619.3C729.8 618.9 730.7 618.6 734 618.3C739 617.7 743 616.9 745.4 616.1V614.4C745.4 609 742.7 606.7 736.3 606.7C730.3 606.7 727.9 608.5 726.5 613.9L720.2 613.1C720.8 610.5 721.1 609.6 721.9 608.2C724.5 603.7 729.7 601.4 737.2 601.4C744.6 601.4 749.4 603.6 750.9 607.7C751.7 609.7 751.8 610.8 751.8 615.6V624.2C751.8 632.6 751.9 633.9 752.3 636.1C752.7 637.8 753 638.4 753.8 640H747.3V640.1ZM745.5 621.2C743.3 622.1 739.5 622.9 735 623.6C728.3 624.5 726.1 626.1 726.1 630C726.1 633.6 729 636 733.7 636C737.3 636 740.6 634.7 742.7 632.4C744.8 630.2 745.5 628 745.5 623.5V621.2V621.2Z" fill="white"/>
<path id="Vector_41" d="M761.7 588.1H768V640.2H761.7V588.1Z" fill="white"/>
<path id="Vector_42" d="M778 588.1H784.4V595.4H778V588.1ZM778 602.5H784.4V640.2H778V602.5Z" fill="white"/>
<path id="Vector_43" d="M797.8 627.9C798.5 633.1 801.8 635.8 807.5 635.8C812.7 635.8 816.2 633.4 816.2 629.8C816.2 627.2 814.6 625.9 809.9 624.7L805.7 623.7C801.6 622.7 799.1 621.7 797 620.6C794.2 619.1 792.5 615.9 792.5 612.5C792.5 606 798.1 601.7 806.4 601.7C813.2 601.7 818.1 603.9 820.1 608C820.8 609.3 821 610 821.3 612.3L815 613.2C814.4 609.1 811.7 607 806.7 607C801.6 607 798.6 608.8 798.6 611.9C798.6 614.7 799.6 615.4 807.5 617.4C812.7 618.8 814.8 619.5 816.9 620.4C820.8 622 822.8 625.1 822.8 629.3C822.8 636.3 816.5 641.2 807.6 641.2C798 641.2 792.9 637.4 791.5 629.1L797.8 627.9Z" fill="white"/>
<path id="Vector_44" d="M845.1 640.1C843.1 640.5 841.9 640.7 840.2 640.7C836 640.7 833.1 639.2 832.1 636.6C831.4 634.9 831.4 634.1 831.4 629.2V607.5H826.7V602.6H831.4V593.2L837.8 589.3V602.5H844.2V607.4H837.8V629.4C837.8 633.7 838.5 634.6 841.4 634.6C842.2 634.6 842.9 634.5 844.2 634.3L845.1 640.1Z" fill="white"/>
<path id="Vector_45" d="M875.8 622.8C876.1 625.6 876.3 626.5 877.2 628.1C879.5 632.2 884.8 634.8 891.2 634.8C899 634.8 904.1 631.3 904.1 625.9C904.1 623.1 902.6 620.8 900.2 619.6C897.7 618.3 896.6 617.9 888.4 616C881.6 614.3 879 613.4 876.2 611.3C873.1 609 871.4 605.5 871.4 601.6C871.4 593 878.7 587.3 889.7 587.3C901.6 587.3 908.9 593.1 909.3 602.9L902.7 603.4C902 596.6 898 593.4 890 593.4C882.6 593.4 878.1 596.3 878.1 601.2C878.1 605.6 880.6 607.3 890.5 609.5C898.6 611.3 901.1 612.1 904.3 614C908.5 616.5 910.9 620.6 910.9 625.6C910.9 634.7 902.9 641.2 891.6 641.2C877.9 641.2 869.7 634.7 869.4 623.6L875.8 622.8Z" fill="white"/>
<path id="Vector_46" d="M944.2 634.6H944.1C941.3 638.8 937.3 641 932.2 641C927.4 641 923 638.8 921.1 635.5C919.6 632.8 919.4 631.5 919.4 625.8V602.5H925.8V623.4C925.8 628.5 925.8 629.1 926.4 630.9C927.3 633.7 930.1 635.6 933.7 635.6C937.4 635.6 941 633.6 942.4 630.6C943.3 628.6 943.7 626.8 943.7 622.7V602.6H950V640.3H944.3V634.6H944.2Z" fill="white"/>
<path id="Vector_47" d="M959.8 640.1V588H966.2V606.6H966.3C968.9 603.1 972.2 601.5 976.5 601.5C986.1 601.5 992.5 609.1 992.5 620.6C992.5 632.7 985.9 640.9 976.2 640.9C971.8 640.9 968.2 638.9 965.9 635.3H965.8V640H959.8V640.1ZM965.7 622C965.7 630.4 969.5 635.7 975.7 635.7C981.9 635.7 986 630 986 621.2C986 612.3 982.2 606.8 976 606.8C969.9 606.8 965.7 612 965.7 621V622Z" fill="white"/>
<path id="Vector_48" d="M1000.2 602.5H1005.9V607.7H1006C1008.5 603.8 1012.5 601.6 1017.3 601.6C1022.8 601.6 1026.5 603.9 1028 608.2C1031.1 603.6 1034.7 601.6 1039.7 601.6C1044.3 601.6 1048.1 603.6 1049.9 606.9C1050.9 608.9 1051.3 610.8 1051.3 614.2V640.1H1045V616.3C1045 609.5 1043.1 607.1 1038.2 607.1C1035.1 607.1 1032.2 608.6 1030.6 611C1029.4 612.8 1028.9 614.6 1028.9 618.2V640.1H1022.6V615.6C1022.6 609.7 1020.5 607.1 1015.8 607.1C1012.5 607.1 1009.5 608.8 1008.1 611.5C1006.9 613.8 1006.5 615.9 1006.5 620.6V640.2H1000.2V602.5V602.5Z" fill="white"/>
<path id="Vector_49" d="M1060.9 588.1H1067.3V595.4H1060.9V588.1ZM1060.9 602.5H1067.3V640.2H1060.9V602.5Z" fill="white"/>
<path id="Vector_50" d="M1080.7 627.9C1081.4 633.1 1084.7 635.8 1090.4 635.8C1095.6 635.8 1099.1 633.4 1099.1 629.8C1099.1 627.2 1097.5 625.9 1092.8 624.7L1088.6 623.7C1084.5 622.7 1082 621.7 1079.9 620.6C1077.1 619.1 1075.4 615.9 1075.4 612.5C1075.4 606 1081 601.7 1089.3 601.7C1096.1 601.7 1101 603.9 1103 608C1103.7 609.3 1103.9 610 1104.2 612.3L1097.9 613.2C1097.3 609.1 1094.6 607 1089.6 607C1084.5 607 1081.5 608.8 1081.5 611.9C1081.5 614.7 1082.5 615.4 1090.4 617.4C1095.6 618.8 1097.7 619.5 1099.8 620.4C1103.7 622 1105.7 625.1 1105.7 629.3C1105.7 636.3 1099.4 641.2 1090.5 641.2C1080.9 641.2 1075.8 637.4 1074.4 629.1L1080.7 627.9Z" fill="white"/>
<path id="Vector_51" d="M1117 627.9C1117.7 633.1 1121 635.8 1126.7 635.8C1131.9 635.8 1135.4 633.4 1135.4 629.8C1135.4 627.2 1133.8 625.9 1129.1 624.7L1124.9 623.7C1120.8 622.7 1118.3 621.7 1116.2 620.6C1113.4 619.1 1111.7 615.9 1111.7 612.5C1111.7 606 1117.3 601.7 1125.6 601.7C1132.4 601.7 1137.3 603.9 1139.3 608C1140 609.3 1140.2 610 1140.5 612.3L1134.2 613.2C1133.6 609.1 1130.9 607 1125.9 607C1120.8 607 1117.8 608.8 1117.8 611.9C1117.8 614.7 1118.8 615.4 1126.7 617.4C1131.9 618.8 1134 619.5 1136.1 620.4C1140 622 1142 625.1 1142 629.3C1142 636.3 1135.7 641.2 1126.8 641.2C1117.2 641.2 1112.1 637.4 1110.7 629.1L1117 627.9Z" fill="white"/>
<path id="Vector_52" d="M1149.8 588.1H1156.2V595.4H1149.8V588.1ZM1149.8 602.5H1156.2V640.2H1149.8V602.5Z" fill="white"/>
<path id="Vector_53" d="M1171.4 604.3C1174.3 602.6 1177.7 601.6 1181.2 601.6C1192 601.6 1198.9 609.1 1198.9 620.7C1198.9 629.5 1196.5 634.8 1191 638.2C1188.2 639.9 1184.7 641 1181.2 641C1173.5 641 1166.9 636.6 1164.8 630C1163.9 627.3 1163.5 624.4 1163.5 621.3C1163.5 613.1 1166.1 607.6 1171.4 604.3ZM1181.2 635.7C1188.2 635.7 1192.3 630.2 1192.3 621.1C1192.3 612.4 1188 606.8 1181.2 606.8C1174.3 606.8 1170.1 612.3 1170.1 621.3C1170.1 630.2 1174.3 635.7 1181.2 635.7Z" fill="white"/>
<path id="Vector_54" d="M1206.3 602.5H1212V607.8H1212.1C1214.7 603.7 1218.9 601.6 1224 601.6C1229 601.6 1233.3 603.7 1235.2 607.1C1236.7 609.7 1236.9 611 1236.9 616.9V640.1H1230.5V617.2C1230.5 613.1 1230.2 611.8 1229 610.1C1227.8 608.2 1225.3 607.1 1222.5 607.1C1218.8 607.1 1215.3 609 1213.8 611.8C1212.9 613.7 1212.5 615.9 1212.5 619.5V640.1H1206.1V602.5H1206.3Z" fill="white"/>
</g>
<g id="Vector_55">
<path d="M614.3 724.3H784.2" stroke="white" stroke-width="9" stroke-miterlimit="10"/>
</g>
</g>
</g>
<g id="nav-english">
<rect width="1227" height="101" fill="black" fill-opacity="0" transform="translate(239 143)"/>
<g id="aux_2">
<rect width="976.27" height="55.3465" fill="black" fill-opacity="0" transform="translate(457 162)"/>
<g id="Group_4">
<rect width="88.11" height="25.0003" fill="black" fill-opacity="0" transform="translate(1149.77 165.24)"/>
<path id="Vector_56" d="M1149.77 165.24H1152.33V184.57H1149.77V165.24Z" fill="#231815"/>
<path id="Vector_57" d="M1158.24 170.58H1160.38V172.58C1160.85 171.844 1161.51 171.245 1162.29 170.843C1163.07 170.441 1163.94 170.251 1164.81 170.29C1165.63 170.231 1166.45 170.39 1167.18 170.75C1167.92 171.11 1168.54 171.659 1169 172.34C1169.53 173.34 1169.62 173.77 1169.62 175.99V184.6H1167.24V176.09C1167.37 175.174 1167.18 174.241 1166.7 173.45C1166.42 173.084 1166.06 172.791 1165.64 172.597C1165.22 172.404 1164.76 172.316 1164.3 172.34C1163.66 172.318 1163.02 172.47 1162.45 172.78C1161.89 173.09 1161.42 173.546 1161.09 174.1C1160.7 175.001 1160.53 175.981 1160.6 176.96V184.6H1158.22L1158.24 170.58Z" fill="#231815"/>
<path id="Vector_58" d="M1183.81 183.08C1183.39 183.651 1182.84 184.113 1182.2 184.428C1181.57 184.743 1180.87 184.901 1180.16 184.89C1176.6 184.89 1174.09 181.81 1174.09 177.44C1174.09 173.07 1176.44 170.26 1180 170.26C1180.8 170.231 1181.6 170.42 1182.3 170.805C1183.01 171.19 1183.59 171.759 1184 172.45V172.45V170.58H1186.13V189.94H1183.78L1183.81 183.08ZM1180.33 182.92C1182.6 182.92 1184.03 180.92 1184.03 177.76C1184.03 174.36 1182.49 172.12 1180.17 172.12C1177.85 172.12 1176.47 174.17 1176.47 177.6C1176.47 180.84 1178 182.92 1180.33 182.92V182.92Z" fill="#231815"/>
<path id="Vector_59" d="M1200.69 182.51H1200.63C1200.17 183.261 1199.52 183.877 1198.74 184.295C1197.96 184.713 1197.09 184.918 1196.21 184.89C1195.41 184.932 1194.61 184.766 1193.88 184.407C1193.16 184.047 1192.55 183.508 1192.1 182.84C1191.54 181.84 1191.45 181.35 1191.45 179.25V170.58H1193.83V178.34C1193.73 179.272 1193.8 180.216 1194.05 181.12C1194.25 181.663 1194.62 182.125 1195.11 182.438C1195.6 182.75 1196.17 182.895 1196.75 182.85C1197.4 182.864 1198.05 182.698 1198.62 182.37C1199.18 182.042 1199.65 181.564 1199.96 180.99C1200.36 180.071 1200.52 179.068 1200.44 178.07V170.59H1202.79V184.59H1200.69V182.51Z" fill="#231815"/>
<path id="Vector_60" d="M1208.14 165.24H1210.52V167.97H1208.14V165.24ZM1208.14 170.58H1210.52V184.58H1208.14V170.58Z" fill="#231815"/>
<path id="Vector_61" d="M1215.67 170.58H1217.81V172.69H1217.86C1218.8 170.85 1219.56 170.26 1220.86 170.26C1221.73 170.271 1222.57 170.535 1223.29 171.02L1222.48 173.2C1221.95 172.872 1221.35 172.695 1220.73 172.69C1219 172.69 1218.05 174.31 1218.05 177.22V184.57H1215.7L1215.67 170.58Z" fill="#231815"/>
<path id="Vector_62" d="M1226 187.72C1226.44 187.864 1226.89 187.938 1227.35 187.94C1228.86 187.94 1229.27 187.54 1230.1 185.16C1230.19 184.978 1230.27 184.787 1230.32 184.59L1225 170.59H1227.57L1230.48 178.69C1230.88 179.749 1231.21 180.831 1231.48 181.93V181.93C1231.72 180.834 1232.06 179.761 1232.48 178.72L1235.48 170.59H1237.88L1232.54 184.82L1232.05 186.14C1230.97 189.14 1229.76 190.24 1227.81 190.24C1227.28 190.246 1226.76 190.155 1226.27 189.97L1226 187.72Z" fill="#231815"/>
</g>
<g id="Group_5">
<rect width="49.0301" height="24.33" fill="black" fill-opacity="0" transform="translate(1291 162)"/>
<path id="Vector_63" d="M1291 179.17V167.17H1299.83V162.23H1302V167.14H1310.79V178.99H1308.66V177.15H1302V186.25H1299.87V177.15H1293.26L1293.2 179.1L1291 179.17ZM1299.8 169.17H1293.13V175.27H1299.83L1299.8 169.17ZM1308.52 169.17H1302V175.24H1308.59L1308.52 169.17Z" fill="black"/>
<path id="Vector_64" d="M1316.18 184.73C1320.18 183.38 1323.84 182.08 1326.7 179.46C1323.98 176.66 1322.52 172.69 1321.79 168.86H1317.39V166.86H1328.16C1327.16 165.344 1325.78 164.117 1324.16 163.3L1325.69 162C1327.41 162.903 1328.89 164.211 1329.99 165.81L1328.61 166.81H1338.7V168.81H1334.41C1333.83 172.711 1332.17 176.373 1329.63 179.39C1332.44 181.79 1336.08 183.19 1340.03 184.39L1338.62 186.11C1334.82 185.037 1331.27 183.222 1328.18 180.77C1325.18 183.52 1320.11 185.52 1317.68 186.33L1316.18 184.73ZM1323.9 168.86C1324.28 172.284 1325.78 175.488 1328.16 177.98C1330.38 175.39 1331.83 172.231 1332.35 168.86H1323.9Z" fill="black"/>
</g>
<g id="Group_6">
<rect width="44.11" height="24.9994" fill="black" fill-opacity="0" transform="translate(1389.16 165.24)"/>
<path id="Vector_65" d="M1389.16 165.24H1403.16V167.53H1391.74V173.45H1402.43V175.71H1391.74V182.34H1403.62V184.61H1389.18L1389.16 165.24Z" fill="black"/>
<path id="Vector_66" d="M1406.87 170.58H1409V172.58C1409.47 171.844 1410.13 171.245 1410.91 170.843C1411.69 170.442 1412.56 170.251 1413.43 170.29C1414.24 170.236 1415.05 170.397 1415.79 170.757C1416.52 171.117 1417.14 171.663 1417.59 172.34C1418.13 173.34 1418.21 173.77 1418.21 175.99V184.6H1415.83V176.09C1415.96 175.174 1415.77 174.241 1415.29 173.45C1415.01 173.083 1414.65 172.79 1414.23 172.596C1413.81 172.403 1413.35 172.315 1412.89 172.34C1412.25 172.319 1411.61 172.471 1411.04 172.78C1410.48 173.09 1410.01 173.546 1409.68 174.1C1409.29 175.001 1409.12 175.981 1409.19 176.96V184.6H1406.82L1406.87 170.58Z" fill="black"/>
<path id="Vector_67" d="M1423.74 186.08C1423.96 187.56 1424.98 188.29 1426.95 188.29C1427.59 188.348 1428.23 188.243 1428.82 187.984C1429.4 187.725 1429.91 187.321 1430.3 186.81C1430.79 185.97 1430.89 185.3 1430.89 183.43V182.73C1430.43 183.317 1429.84 183.789 1429.17 184.108C1428.49 184.428 1427.76 184.586 1427.01 184.57C1423.45 184.57 1421.01 181.68 1421.01 177.49C1421.01 173.12 1423.41 170.26 1427.08 170.26C1427.86 170.242 1428.63 170.415 1429.33 170.763C1430.03 171.112 1430.63 171.626 1431.08 172.26V172.26V170.58H1433.27V182.68C1433.27 185.86 1432.84 187.45 1431.7 188.56C1430.4 189.723 1428.69 190.323 1426.95 190.23C1423.55 190.23 1421.39 188.62 1421.39 186.02C1421.38 185.924 1421.38 185.826 1421.39 185.73L1423.74 186.08ZM1427.25 182.6C1427.97 182.596 1428.67 182.369 1429.25 181.95C1430.51 181.06 1431.05 179.73 1431.05 177.39C1431.05 174.23 1429.54 172.2 1427.17 172.2C1424.8 172.2 1423.36 174.2 1423.36 177.47C1423.36 180.74 1424.85 182.6 1427.25 182.6Z" fill="black"/>
</g>
<g id="Group_7">
<rect width="140.85" height="52.4402" fill="black" fill-opacity="0" transform="translate(609.35 164.906)"/>
<path id="Vector_68" d="M626.45 178.44C625.37 182.6 622.54 184.89 618.45 184.89C614.54 184.89 611.92 183.35 610.51 180.22C609.742 178.506 609.346 176.648 609.35 174.77C609.35 168.77 612.94 164.92 618.48 164.92C620.213 164.815 621.928 165.322 623.324 166.353C624.721 167.384 625.71 168.873 626.12 170.56L623.61 171.15C622.69 168.37 621.1 167.1 618.42 167.1C614.37 167.1 612 169.94 612 174.74C612 179.79 614.27 182.74 618.23 182.74C621.23 182.74 623.23 181.02 623.88 177.83L626.45 178.44Z" fill="#231815"/>
<path id="Vector_69" d="M631.34 171.26C632.439 170.599 633.698 170.254 634.98 170.26C638.98 170.26 641.54 173.04 641.54 177.36C641.54 180.63 640.65 182.6 638.63 183.86C637.528 184.522 636.266 184.868 634.98 184.86C633.666 184.911 632.371 184.544 631.279 183.81C630.188 183.077 629.359 182.016 628.91 180.78C628.582 179.735 628.42 178.645 628.43 177.55C628.43 174.52 629.37 172.47 631.34 171.26ZM635 182.92C637.6 182.92 639.13 180.92 639.13 177.49C639.13 174.26 637.54 172.2 635 172.2C632.46 172.2 630.87 174.2 630.87 177.58C630.87 180.96 632.42 182.92 635 182.92Z" fill="#231815"/>
<path id="Vector_70" d="M644.27 170.58H646.38V172.53H646.43C646.87 171.819 647.488 171.235 648.223 170.837C648.958 170.439 649.784 170.24 650.62 170.26C652.67 170.26 654.02 171.1 654.62 172.72C655.056 171.956 655.69 171.324 656.456 170.891C657.222 170.458 658.091 170.24 658.97 170.26C659.723 170.214 660.474 170.377 661.141 170.73C661.807 171.082 662.364 171.612 662.75 172.26C663.15 173.112 663.325 174.051 663.26 174.99V184.6H660.91V175.74C660.91 173.23 660.21 172.31 658.4 172.31C657.849 172.302 657.304 172.431 656.815 172.686C656.326 172.941 655.909 173.313 655.6 173.77C655.103 174.567 654.885 175.506 654.98 176.44V184.57H652.63V175.47C652.63 173.28 651.84 172.31 650.12 172.31C649.542 172.3 648.972 172.446 648.469 172.73C647.966 173.015 647.549 173.429 647.26 173.93C646.761 174.983 646.554 176.15 646.66 177.31V184.57H644.31L644.27 170.58Z" fill="#231815"/>
<path id="Vector_71" d="M666.82 170.58H669V172.39C669.412 171.706 670.001 171.147 670.706 170.772C671.41 170.397 672.203 170.22 673 170.26C676.59 170.26 678.94 173.09 678.94 177.47C678.94 181.85 676.42 184.89 672.84 184.89C672.138 184.903 671.444 184.749 670.814 184.439C670.184 184.13 669.638 183.674 669.22 183.11H669.16V189.94H666.79L666.82 170.58ZM672.7 182.92C675.08 182.92 676.54 180.84 676.54 177.44C676.54 174.04 675.11 172.12 672.81 172.12C670.51 172.12 668.95 174.39 668.95 177.82C669 180.95 670.41 182.92 672.7 182.92Z" fill="#231815"/>
<path id="Vector_72" d="M693.84 180.34C693.06 183.28 690.9 184.87 687.71 184.87C683.53 184.87 681.02 182.17 681.02 177.66C681.02 173.15 683.56 170.24 687.58 170.24C691.6 170.24 693.95 173.07 693.95 177.53C693.95 177.66 693.95 177.88 693.95 178.15H683.48C683.64 181.15 685.26 182.9 687.71 182.9C689.52 182.9 690.71 182.01 691.41 180.04L693.84 180.34ZM691.44 176.21C691.432 175.594 691.303 174.986 691.06 174.42C690.762 173.748 690.273 173.178 689.655 172.78C689.037 172.382 688.315 172.173 687.58 172.18C686.519 172.18 685.502 172.601 684.752 173.352C684.001 174.102 683.58 175.119 683.58 176.18L691.44 176.21Z" fill="#231815"/>
<path id="Vector_73" d="M702.27 184.54C701.678 184.684 701.07 184.758 700.46 184.76C698.89 184.76 697.81 184.22 697.46 183.22C697.17 182.331 697.078 181.389 697.19 180.46V172.46H695.46V170.62H697.19V167.14L699.56 165.71V170.62H701.94V172.46H699.56V180.64C699.56 182.23 699.8 182.58 700.91 182.58C701.246 182.573 701.581 182.536 701.91 182.47L702.27 184.54Z" fill="#231815"/>
<path id="Vector_74" d="M704.35 165.24H706.72V167.97H704.35V165.24ZM704.35 170.58H706.72V184.58H704.35V170.58Z" fill="#231815"/>
<path id="Vector_75" d="M715.77 184.54C715.178 184.684 714.57 184.758 713.96 184.76C712.39 184.76 711.31 184.22 710.96 183.22C710.67 182.331 710.578 181.389 710.69 180.46V172.46H708.96V170.62H710.69V167.14L713.06 165.71V170.62H715.44V172.46H713V180.64C713 182.23 713.24 182.58 714.35 182.58C714.686 182.573 715.021 182.536 715.35 182.47L715.77 184.54Z" fill="#231815"/>
<path id="Vector_76" d="M717.85 165.24H720.22V167.97H717.85V165.24ZM717.85 170.58H720.22V184.58H717.85V170.58Z" fill="#231815"/>
<path id="Vector_77" d="M725.87 171.26C726.969 170.599 728.228 170.254 729.51 170.26C733.51 170.26 736.07 173.04 736.07 177.36C736.07 180.63 735.18 182.6 733.15 183.86C732.051 184.52 730.792 184.866 729.51 184.86C728.196 184.911 726.9 184.544 725.809 183.81C724.718 183.077 723.889 182.016 723.44 180.78C723.104 179.737 722.938 178.646 722.95 177.55C723 174.52 723.9 172.47 725.87 171.26ZM729.51 182.92C732.1 182.92 733.64 180.92 733.64 177.49C733.64 174.26 732.05 172.2 729.51 172.2C726.97 172.2 725.38 174.2 725.38 177.58C725.38 180.96 727 182.92 729.51 182.92V182.92Z" fill="#231815"/>
<path id="Vector_78" d="M738.85 170.58H741V172.58C741.473 171.844 742.132 171.245 742.909 170.843C743.687 170.441 744.556 170.251 745.43 170.29C746.241 170.235 747.052 170.396 747.781 170.756C748.51 171.116 749.13 171.663 749.58 172.34C750.12 173.34 750.2 173.77 750.2 175.99V184.6H747.83V176.09C747.961 175.174 747.77 174.241 747.29 173.45C747.011 173.083 746.646 172.791 746.228 172.597C745.809 172.404 745.35 172.316 744.89 172.34C744.245 172.32 743.607 172.472 743.041 172.782C742.474 173.091 742.001 173.546 741.67 174.1C741.286 175.002 741.121 175.982 741.19 176.96V184.6H738.81L738.85 170.58Z" fill="#231815"/>
<path id="Vector_79" d="M610.15 197.64H618.7C620.018 197.538 621.343 197.712 622.59 198.15C623.508 198.55 624.285 199.217 624.82 200.064C625.355 200.911 625.623 201.899 625.59 202.9C625.59 205.9 623.7 207.68 620.14 208.14V208.19C620.767 208.428 621.336 208.796 621.81 209.27C622.576 209.993 623.248 210.81 623.81 211.7L627.19 216.97H624L621.43 212.97C620.826 211.984 620.158 211.039 619.43 210.14C619.043 209.618 618.557 209.176 618 208.84C617.304 208.421 616.483 208.259 615.68 208.38H612.68V216.97H610.12L610.15 197.64ZM618.22 206.17C619.268 206.26 620.322 206.092 621.29 205.68C621.779 205.432 622.193 205.057 622.488 204.595C622.783 204.132 622.949 203.599 622.969 203.051C622.988 202.503 622.86 201.959 622.598 201.477C622.337 200.995 621.95 200.592 621.48 200.31C620.654 199.895 619.732 199.708 618.81 199.77H612.71V206.17H618.22Z" fill="#231815"/>
<path id="Vector_80" d="M638.49 214.91H638.44C637.983 215.673 637.331 216.301 636.55 216.728C635.77 217.155 634.889 217.366 634 217.34C633.198 217.382 632.398 217.216 631.679 216.856C630.96 216.497 630.347 215.957 629.9 215.29C629.33 214.29 629.25 213.8 629.25 211.7V203.03H631.63V210.78C631.532 211.712 631.603 212.653 631.84 213.56C632.043 214.101 632.416 214.561 632.903 214.873C633.389 215.185 633.964 215.331 634.54 215.29C635.194 215.305 635.84 215.139 636.406 214.811C636.973 214.483 637.438 214.005 637.75 213.43C638.157 212.513 638.326 211.509 638.24 210.51V203.03H640.59V217.03H638.48L638.49 214.91Z" fill="#231815"/>
<path id="Vector_81" d="M644.27 197.64H646.62V216.97H644.27V197.64Z" fill="#231815"/>
<path id="Vector_82" d="M662.33 212.76C661.55 215.7 659.39 217.29 656.2 217.29C652.02 217.29 649.51 214.59 649.51 210.08C649.51 205.57 652.05 202.66 656.07 202.66C660.09 202.66 662.44 205.49 662.44 209.95C662.44 210.08 662.44 210.3 662.44 210.57H652C652.16 213.57 653.78 215.32 656.23 215.32C658.04 215.32 659.23 214.43 659.93 212.46L662.33 212.76ZM659.93 208.63C659.927 208.014 659.798 207.404 659.55 206.84C659.252 206.168 658.763 205.598 658.145 205.2C657.527 204.802 656.806 204.593 656.07 204.6C655.009 204.6 653.992 205.021 653.242 205.771C652.492 206.522 652.07 207.539 652.07 208.6L659.93 208.63Z" fill="#231815"/>
<path id="Vector_83" d="M666.68 212.43C667 214.34 668.17 215.34 670.3 215.34C672.24 215.34 673.51 214.45 673.51 213.1C673.51 212.1 672.92 211.64 671.16 211.21L669.6 210.83C668.482 210.592 667.402 210.202 666.39 209.67C665.869 209.364 665.439 208.924 665.144 208.397C664.849 207.87 664.699 207.274 664.71 206.67C664.71 204.27 666.79 202.67 669.87 202.67C672.41 202.67 674.21 203.48 674.97 204.99C675.215 205.489 675.371 206.027 675.43 206.58L673.11 206.91C672.89 205.4 671.87 204.61 670.03 204.61C668.19 204.61 667.03 205.29 667.03 206.42C667.03 207.55 667.4 207.72 670.32 208.47C671.505 208.756 672.668 209.127 673.8 209.58C674.468 209.824 675.04 210.275 675.434 210.866C675.828 211.458 676.023 212.16 675.99 212.87C675.99 215.46 673.67 217.3 670.35 217.3C666.78 217.3 664.89 215.9 664.35 212.79L666.68 212.43Z" fill="#231815"/>
</g>
<g id="Group_8">
<rect width="71.3" height="52.07" fill="black" fill-opacity="0" transform="translate(457 165.24)"/>
<path id="Vector_84" d="M457 165.24H459.56V182.34H469.09V184.61H457V165.24Z" fill="#231815"/>
<path id="Vector_85" d="M481.45 184.57C481.178 184.03 481.015 183.443 480.97 182.84C479.576 184.158 477.729 184.892 475.81 184.89C472.89 184.89 471.03 183.32 471.03 180.89C471.041 179.939 471.381 179.021 471.991 178.292C472.602 177.563 473.446 177.068 474.38 176.89C475.086 176.697 475.81 176.573 476.54 176.52C477.975 176.377 479.394 176.106 480.78 175.71V175.08C480.78 173.08 479.78 172.22 477.4 172.22C475.02 172.22 474.27 172.9 473.76 174.9L471.44 174.6C471.531 173.963 471.741 173.349 472.06 172.79C473.06 171.12 474.95 170.28 477.73 170.28C480.51 170.28 482.26 171.09 482.83 172.63C483.16 173.562 483.28 174.556 483.18 175.54V178.73C483.092 180.209 483.156 181.694 483.37 183.16C483.463 183.67 483.657 184.156 483.94 184.59L481.45 184.57ZM480.78 177.57C479.517 177.998 478.214 178.296 476.89 178.46C474.41 178.81 473.57 179.4 473.57 180.83C473.57 182.26 474.65 183.05 476.4 183.05C477.019 183.066 477.636 182.957 478.211 182.728C478.787 182.5 479.311 182.157 479.75 181.72C480.53 180.92 480.75 180.11 480.75 178.43L480.78 177.57Z" fill="#231815"/>
<path id="Vector_86" d="M492.28 184.54C491.687 184.684 491.08 184.758 490.47 184.76C488.91 184.76 487.83 184.22 487.47 183.22C487.18 182.331 487.088 181.389 487.2 180.46V172.46H485.47V170.62H487.2V167.14L489.57 165.71V170.62H491.95V172.46H489.57V180.64C489.57 182.23 489.82 182.58 490.92 182.58C491.256 182.573 491.591 182.536 491.92 182.47L492.28 184.54Z" fill="#231815"/>
<path id="Vector_87" d="M506.37 180.34C505.59 183.28 503.43 184.87 500.24 184.87C496.06 184.87 493.55 182.17 493.55 177.66C493.55 173.15 496.09 170.24 500.11 170.24C504.13 170.24 506.48 173.07 506.48 177.53C506.48 177.66 506.48 177.88 506.48 178.15H496C496.16 181.15 497.78 182.9 500.23 182.9C502.04 182.9 503.23 182.01 503.93 180.04L506.37 180.34ZM503.97 176.21C503.962 175.594 503.833 174.986 503.59 174.42C503.292 173.748 502.803 173.178 502.185 172.78C501.567 172.382 500.845 172.173 500.11 172.18C499.049 172.18 498.032 172.601 497.282 173.352C496.531 174.102 496.11 175.119 496.11 176.18L503.97 176.21Z" fill="#231815"/>
<path id="Vector_88" d="M510.72 180.03C510.99 181.95 512.21 182.95 514.34 182.95C516.28 182.95 517.55 182.06 517.55 180.71C517.55 179.71 516.96 179.25 515.2 178.82L513.64 178.44C512.519 178.202 511.435 177.812 510.42 177.28C509.902 176.972 509.474 176.532 509.181 176.005C508.888 175.478 508.739 174.883 508.75 174.28C508.75 171.88 510.83 170.28 513.91 170.28C516.44 170.28 518.25 171.09 519.01 172.6C519.255 173.099 519.411 173.637 519.47 174.19L517.15 174.52C516.93 173.01 515.9 172.22 514.07 172.22C512.24 172.22 511.07 172.9 511.07 174.03C511.07 175.16 511.44 175.33 514.36 176.08C515.545 176.368 516.707 176.739 517.84 177.19C518.508 177.434 519.08 177.885 519.474 178.476C519.868 179.068 520.062 179.77 520.03 180.48C520.03 183.07 517.71 184.91 514.39 184.91C510.82 184.91 508.93 183.51 508.39 180.4L510.72 180.03Z" fill="#231815"/>
<path id="Vector_89" d="M528.3 184.54C527.707 184.684 527.1 184.758 526.49 184.76C524.92 184.76 523.84 184.22 523.49 183.22C523.2 182.331 523.108 181.389 523.22 180.46V172.46H521.49V170.62H523.22V167.14L525.59 165.71V170.62H528V172.46H525.62V180.64C525.62 182.23 525.86 182.58 526.97 182.58C527.306 182.573 527.641 182.536 527.97 182.47L528.3 184.54Z" fill="#231815"/>
<path id="Vector_90" d="M457.1 197.64H459.72L468.09 210.16C468.946 211.362 469.696 212.637 470.33 213.97C470.077 212.433 469.943 210.878 469.93 209.32L469.82 197.69H472.27V217.02H469.7L460 202.47C459.701 202.047 459.446 201.595 459.24 201.12V201.18V201.58C459.3 202.42 459.38 203.28 459.38 203.77L459.6 216.97H457.1V197.64Z" fill="#231815"/>
<path id="Vector_91" d="M488.34 212.76C488.032 214.125 487.243 215.334 486.118 216.165C484.992 216.997 483.605 217.396 482.21 217.29C478.02 217.29 475.51 214.59 475.51 210.08C475.51 205.57 478.05 202.66 482.07 202.66C486.09 202.66 488.44 205.49 488.44 209.95C488.44 210.08 488.44 210.3 488.44 210.57H478C478.16 213.57 479.78 215.32 482.24 215.32C484.05 215.32 485.24 214.43 485.94 212.46L488.34 212.76ZM485.93 208.63C485.927 208.014 485.798 207.404 485.55 206.84C485.253 206.167 484.764 205.596 484.146 205.198C483.527 204.8 482.806 204.592 482.07 204.6C481.009 204.6 479.992 205.021 479.242 205.771C478.491 206.522 478.07 207.539 478.07 208.6L485.93 208.63Z" fill="#231815"/>
<path id="Vector_92" d="M489.63 202.98H492.09L494.3 211.05L494.52 211.89L494.93 213.32L495.12 214.05L495.25 213.32L495.55 212.24L495.82 211.16L498.03 202.98H500.49L502.57 211.08C502.57 211.3 502.7 211.65 502.84 212.08C503.08 212.97 503.11 213.08 503.24 213.75H503.3C503.416 213.223 503.559 212.702 503.73 212.19C503.86 211.78 503.97 211.41 504.08 211.05L506.48 202.98H508.78L504.4 216.98H502L499.76 208.58L499.3 206.53L499.24 206.21H499.19L496.38 216.98H493.9L489.63 202.98Z" fill="#231815"/>
<path id="Vector_93" d="M512.18 212.43C512.45 214.35 513.66 215.35 515.8 215.35C517.74 215.35 519.01 214.46 519.01 213.11C519.01 212.11 518.41 211.65 516.66 211.22L515.09 210.84C513.973 210.6 512.893 210.21 511.88 209.68C511.362 209.372 510.935 208.932 510.641 208.405C510.348 207.878 510.199 207.283 510.21 206.68C510.21 204.28 512.29 202.68 515.36 202.68C517.9 202.68 519.71 203.49 520.47 205C520.716 205.498 520.869 206.037 520.92 206.59L518.6 206.92C518.39 205.41 517.36 204.62 515.53 204.62C513.7 204.62 512.53 205.3 512.53 206.43C512.53 207.56 512.91 207.73 515.83 208.48C517.014 208.769 518.177 209.14 519.31 209.59C519.977 209.834 520.548 210.285 520.94 210.877C521.332 211.469 521.525 212.171 521.49 212.88C521.49 215.47 519.17 217.31 515.85 217.31C512.29 217.31 510.4 215.91 509.85 212.8L512.18 212.43Z" fill="#231815"/>
</g>
<g id="Group_9">
<rect width="120.3" height="52.1" fill="black" fill-opacity="0" transform="translate(812 165)"/>
<path id="Vector_94" d="M812 165H814.6L817.6 177.7C817.9 179 818.2 180.2 818.3 181.2L818.4 181.7H818.5L818.6 181.1L819 179.4L819.4 178.1L823.1 165.1H826.2L829 174.9C829.6 177.1 830.2 179.9 830.5 181.8H830.6C830.8 180.5 831.1 179.2 831.5 177.6L834.5 165.2H837.1L831.8 184.5H829.3L825.2 169.8L824.8 168.4L824.6 167.5H824.5C824.3 168.6 824.2 169 824 169.8L819.9 184.5H817.3L812 165Z" fill="#231815"/>
<path id="Vector_95" d="M841.1 171.1C842.2 170.5 843.4 170.1 844.7 170.1C848.7 170.1 851.3 172.9 851.3 177.2C851.3 180.5 850.4 182.4 848.4 183.7C847.3 184.3 846.1 184.7 844.8 184.7C841.9 184.7 839.5 183.1 838.7 180.6C838.4 179.6 838.2 178.5 838.2 177.4C838.2 174.3 839.1 172.3 841.1 171.1ZM844.7 182.7C847.3 182.7 848.8 180.7 848.8 177.3C848.8 174.1 847.2 172 844.7 172C842.1 172 840.6 174 840.6 177.4C840.6 180.7 842.2 182.7 844.7 182.7Z" fill="#231815"/>
<path id="Vector_96" d="M854 170.4H856.1V172.5H856.2C857.1 170.7 857.9 170.1 859.2 170.1C860 170.1 860.8 170.3 861.6 170.9L860.8 173.1C860.2 172.7 859.6 172.6 859 172.6C857.3 172.6 856.3 174.2 856.3 177.1V184.4H854V170.4Z" fill="#231815"/>
<path id="Vector_97" d="M863 165H865.4V176L871 170.3H874.1L868.8 175.5L874.7 184.3H871.8L867.2 177.1L865.5 178.7V184.3H863.1V165H863Z" fill="#231815"/>
<path id="Vector_98" d="M877.9 179.8C878.2 181.7 879.4 182.7 881.5 182.7C883.4 182.7 884.7 181.8 884.7 180.5C884.7 179.5 884.1 179 882.4 178.6L880.8 178.2C879.3 177.8 878.3 177.5 877.6 177C876.6 176.4 875.9 175.3 875.9 174C875.9 171.6 878 170 881.1 170C883.6 170 885.4 170.8 886.2 172.3C886.4 172.8 886.5 173.1 886.7 173.9L884.4 174.2C884.2 172.7 883.2 171.9 881.3 171.9C879.4 171.9 878.3 172.6 878.3 173.7C878.3 174.8 878.7 175 881.6 175.8C883.5 176.3 884.3 176.6 885.1 176.9C886.5 177.5 887.3 178.6 887.3 180.2C887.3 182.8 885 184.6 881.7 184.6C878.1 184.6 876.2 183.2 875.7 180.1L877.9 179.8Z" fill="#231815"/>
<path id="Vector_99" d="M890 165H892.3V171.9C893.4 170.6 894.8 170 896.5 170C898.3 170 900 170.8 900.7 172C901.2 172.8 901.3 173.8 901.3 175.5V184.4H898.901V175.5C898.901 174.4 898.7 173.6 898.3 173.1C897.8 172.5 896.901 172.1 895.901 172.1C894.601 172.1 893.4 172.8 892.8 173.8C892.4 174.5 892.2 175.3 892.2 176.7V184.4H889.901V165H890Z" fill="#231815"/>
<path id="Vector_100" d="M907.1 171.1C908.2 170.5 909.4 170.1 910.7 170.1C914.7 170.1 917.3 172.9 917.3 177.2C917.3 180.5 916.4 182.4 914.4 183.7C913.3 184.3 912.1 184.7 910.8 184.7C907.9 184.7 905.5 183.1 904.7 180.6C904.4 179.6 904.2 178.5 904.2 177.4C904.2 174.3 905.1 172.3 907.1 171.1ZM910.7 182.7C913.3 182.7 914.8 180.7 914.8 177.3C914.8 174.1 913.2 172 910.7 172C908.1 172 906.6 174 906.6 177.4C906.6 180.7 908.2 182.7 910.7 182.7Z" fill="#231815"/>
<path id="Vector_101" d="M920.1 170.4H922.3V172.2H922.4C923.4 170.7 924.6 170.1 926.4 170.1C930 170.1 932.3 172.9 932.3 177.3C932.3 181.7 929.8 184.7 926.2 184.7C924.7 184.7 923.4 184.1 922.6 182.9H922.5V189.7H920.1V170.4V170.4ZM926 182.7C928.4 182.7 929.8 180.6 929.8 177.2C929.8 173.9 928.4 171.9 926.1 171.9C923.8 171.9 922.2 174.2 922.2 177.6C922.2 180.7 923.7 182.7 926 182.7Z" fill="#231815"/>
<path id="Vector_102" d="M813.8 197.4H816.4L824.8 209.9C825.9 211.6 826.4 212.4 827 213.7L827.1 213.6C826.9 212.4 826.7 210.4 826.7 209L826.6 197.4H829.1V216.7H826.5L816.8 202.2C816.5 201.8 816.4 201.6 816 200.9L815.9 201V201.4C816 202.2 816 203.1 816 203.6L816.2 216.8H813.7V197.4H813.8Z" fill="#231815"/>
<path id="Vector_103" d="M835.1 203.5C836.2 202.9 837.4 202.5 838.7 202.5C842.7 202.5 845.3 205.3 845.3 209.6C845.3 212.9 844.4 214.8 842.4 216.1C841.3 216.7 840.1 217.1 838.8 217.1C835.9 217.1 833.5 215.5 832.7 213C832.4 212 832.2 210.9 832.2 209.8C832.2 206.7 833.1 204.7 835.1 203.5ZM838.7 215.1C841.3 215.1 842.8 213.1 842.8 209.7C842.8 206.5 841.2 204.4 838.7 204.4C836.1 204.4 834.6 206.4 834.6 209.8C834.6 213.1 836.2 215.1 838.7 215.1Z" fill="#231815"/>
<path id="Vector_104" d="M853.5 216.7C852.7 216.9 852.3 216.9 851.7 216.9C850.1 216.9 849.1 216.4 848.7 215.4C848.5 214.8 848.4 214.5 848.4 212.6V204.6H846.7V202.8H848.4V199.3L850.8 197.9V202.8H853.2V204.6H850.8V212.8C850.8 214.4 851 214.7 852.1 214.7C852.4 214.7 852.7 214.7 853.1 214.6L853.5 216.7Z" fill="#231815"/>
<path id="Vector_105" d="M867.6 212.5C866.8 215.4 864.7 217 861.5 217C857.3 217 854.8 214.3 854.8 209.8C854.8 205.3 857.3 202.4 861.4 202.4C865.3 202.4 867.8 205.2 867.8 209.7C867.8 209.8 867.8 210.1 867.8 210.3H857.2C857.4 213.3 859 215.1 861.4 215.1C863.2 215.1 864.4 214.2 865.1 212.2L867.6 212.5ZM865.2 208.4C865.1 207.5 865.1 207.2 864.8 206.6C864.3 205.3 862.9 204.4 861.3 204.4C859.1 204.4 857.5 206 857.3 208.4H865.2Z" fill="#231815"/>
<path id="Vector_106" d="M871.9 212.2C872.2 214.1 873.4 215.1 875.5 215.1C877.4 215.1 878.7 214.2 878.7 212.9C878.7 211.9 878.1 211.4 876.4 211L874.8 210.6C873.3 210.2 872.3 209.9 871.6 209.4C870.6 208.8 869.9 207.7 869.9 206.4C869.9 204 872 202.4 875.1 202.4C877.6 202.4 879.4 203.2 880.2 204.7C880.4 205.2 880.5 205.5 880.7 206.3L878.4 206.6C878.2 205.1 877.2 204.3 875.3 204.3C873.4 204.3 872.3 205 872.3 206.1C872.3 207.2 872.7 207.4 875.6 208.2C877.5 208.7 878.3 209 879.1 209.3C880.5 209.9 881.3 211 881.3 212.6C881.3 215.2 879 217 875.7 217C872.1 217 870.2 215.6 869.7 212.5L871.9 212.2Z" fill="#231815"/>
</g>
<g id="Group_10">
<rect width="105.494" height="19.67" fill="black" fill-opacity="0" transform="translate(995 165.24)"/>
<path id="Vector_107" d="M1002.37 165.24H1005.12L1013 184.57H1010.12L1007.85 178.71H999.78L997.64 184.57H995L1002.37 165.24ZM1007.06 176.63L1005 171.34C1004.47 170.039 1004.03 168.703 1003.68 167.34H1003.62C1003.38 168.597 1003.05 169.834 1002.62 171.04L1000.49 176.71L1007.06 176.63Z" fill="#231815"/>
<path id="Vector_108" d="M1026.23 179.73C1026.11 181.173 1025.43 182.514 1024.35 183.474C1023.26 184.435 1021.85 184.941 1020.4 184.89C1016.4 184.89 1014.03 182.14 1014.03 177.6C1014.03 173.06 1016.44 170.26 1020.43 170.26C1021.33 170.218 1022.23 170.396 1023.05 170.777C1023.87 171.158 1024.58 171.732 1025.13 172.45C1025.61 173.107 1025.91 173.88 1025.99 174.69L1023.7 175.04C1023.27 173.18 1022.16 172.2 1020.51 172.2C1017.92 172.2 1016.51 174.12 1016.51 177.55C1016.51 180.98 1017.92 182.92 1020.43 182.92C1021.06 182.938 1021.69 182.775 1022.23 182.449C1022.78 182.123 1023.22 181.648 1023.5 181.08C1023.75 180.567 1023.9 180.01 1023.94 179.44L1026.23 179.73Z" fill="#231815"/>
<path id="Vector_109" d="M1033.74 184.54C1033.15 184.684 1032.54 184.758 1031.93 184.76C1030.37 184.76 1029.29 184.22 1028.93 183.22C1028.65 182.329 1028.55 181.389 1028.66 180.46V172.46H1026.93V170.62H1028.66V167.14L1031.04 165.71V170.62H1033.41V172.46H1031V180.64C1031 182.23 1031.24 182.58 1032.35 182.58C1032.69 182.573 1033.02 182.536 1033.35 182.47L1033.74 184.54Z" fill="#231815"/>
<path id="Vector_110" d="M1035.82 165.24H1038.2V167.97H1035.82V165.24ZM1035.82 170.58H1038.2V184.58H1035.82V170.58Z" fill="#231815"/>
<path id="Vector_111" d="M1040.33 170.58H1042.84L1045.84 178.95C1046.18 179.88 1046.47 180.828 1046.7 181.79H1046.76C1046.99 180.878 1047.27 179.983 1047.62 179.11L1050.72 170.58H1053.15L1047.86 184.58H1045.65L1040.33 170.58Z" fill="#231815"/>
<path id="Vector_112" d="M1055.32 165.24H1057.69V167.97H1055.32V165.24ZM1055.32 170.58H1057.69V184.58H1055.32V170.58Z" fill="#231815"/>
<path id="Vector_113" d="M1066.74 184.54C1066.15 184.684 1065.54 184.758 1064.93 184.76C1063.36 184.76 1062.28 184.22 1061.93 183.22C1061.65 182.329 1061.55 181.389 1061.66 180.46V172.46H1059.94V170.62H1061.66V167.14L1064.04 165.71V170.62H1066.41V172.46H1064V180.64C1064 182.23 1064.24 182.58 1065.35 182.58C1065.69 182.574 1066.02 182.537 1066.35 182.47L1066.74 184.54Z" fill="#231815"/>
<path id="Vector_114" d="M1068.82 165.24H1071.19V167.97H1068.82V165.24ZM1068.82 170.58H1071.19V184.58H1068.82V170.58Z" fill="#231815"/>
<path id="Vector_115" d="M1086.82 180.34C1086.04 183.28 1083.88 184.87 1080.69 184.87C1076.51 184.87 1074 182.17 1074 177.66C1074 173.15 1076.54 170.24 1080.56 170.24C1084.58 170.24 1086.93 173.07 1086.93 177.53C1086.93 177.66 1086.93 177.88 1086.93 178.15H1076.45C1076.62 181.15 1078.24 182.9 1080.69 182.9C1082.5 182.9 1083.69 182.01 1084.39 180.04L1086.82 180.34ZM1084.42 176.21C1084.41 175.594 1084.28 174.986 1084.04 174.42C1083.74 173.748 1083.25 173.178 1082.63 172.78C1082.02 172.382 1081.3 172.173 1080.56 172.18C1079.5 172.18 1078.48 172.601 1077.73 173.352C1076.98 174.102 1076.56 175.119 1076.56 176.18L1084.42 176.21Z" fill="#231815"/>
<path id="Vector_116" d="M1091.17 180.03C1091.44 181.95 1092.66 182.95 1094.79 182.95C1096.73 182.95 1098 182.06 1098 180.71C1098 179.71 1097.41 179.25 1095.65 178.82L1094.09 178.44C1092.97 178.202 1091.89 177.812 1090.87 177.28C1090.35 176.972 1089.92 176.532 1089.63 176.005C1089.34 175.478 1089.19 174.883 1089.2 174.28C1089.2 171.88 1091.28 170.28 1094.36 170.28C1096.89 170.28 1098.7 171.09 1099.46 172.6C1099.71 173.099 1099.86 173.637 1099.92 174.19L1097.6 174.52C1097.38 173.01 1096.35 172.22 1094.52 172.22C1092.69 172.22 1091.52 172.9 1091.52 174.03C1091.52 175.16 1091.9 175.33 1094.82 176.08C1096 176.369 1097.17 176.74 1098.3 177.19C1098.97 177.434 1099.54 177.885 1099.93 178.476C1100.33 179.068 1100.52 179.77 1100.49 180.48C1100.49 183.07 1098.16 184.91 1094.84 184.91C1091.28 184.91 1089.39 183.51 1088.84 180.4L1091.17 180.03Z" fill="#231815"/>
</g>
</g>
<g id="Group 3">
<rect width="136.5" height="53.1001" fill="black" fill-opacity="0" transform="translate(268 165)"/>
<g id="Group_11">
<rect width="83.1997" height="19.6997" fill="black" fill-opacity="0" transform="translate(268 165)"/>
<path id="Vector_117" d="M268.1 165H281.1V167.3H270.6V173.3H279.7V175.6H270.6V184.4H268V165H268.1Z" fill="#231815"/>
<path id="Vector_118" d="M284.3 165H286.7V167.7H284.3V165ZM284.3 170.3H286.7V184.3H284.3V170.3Z" fill="#231815"/>
<path id="Vector_119" d="M290.3 170.3H292.4V172.3H292.5C293.5 170.8 295 170 296.9 170C298.8 170 300.4 170.8 301.1 172.1C301.6 173.1 301.7 173.5 301.7 175.7V184.3H299.3V175.8C299.3 174.3 299.2 173.8 298.8 173.2C298.3 172.5 297.4 172.1 296.4 172.1C295 172.1 293.7 172.8 293.2 173.9C292.8 174.6 292.7 175.4 292.7 176.8V184.4H290.3V170.3V170.3Z" fill="#231815"/>
<path id="Vector_120" d="M314.9 184.3C314.6 183.8 314.5 183.3 314.4 182.6C312.7 184 311.2 184.7 309.2 184.7C306.3 184.7 304.4 183.1 304.4 180.7C304.4 178.8 305.6 177.3 307.7 176.7C308.3 176.5 308.6 176.5 309.9 176.3C311.8 176.1 313.2 175.8 314.1 175.5V174.9C314.1 172.9 313.1 172 310.7 172C308.5 172 307.6 172.7 307.1 174.7L304.8 174.4C305 173.4 305.1 173.1 305.4 172.6C306.4 170.9 308.3 170.1 311.1 170.1C313.9 170.1 315.6 170.9 316.2 172.4C316.5 173.2 316.6 173.6 316.6 175.3V178.5C316.6 181.6 316.6 182.1 316.8 182.9C316.9 183.5 317 183.8 317.4 184.3H314.9V184.3ZM314.2 177.3C313.4 177.6 312 177.9 310.3 178.2C307.8 178.6 307 179.1 307 180.6C307 181.9 308.1 182.8 309.8 182.8C311.1 182.8 312.4 182.3 313.1 181.5C313.9 180.7 314.1 179.9 314.1 178.2V177.3H314.2Z" fill="#231815"/>
<path id="Vector_121" d="M320.3 165H322.6V184.3H320.3V165Z" fill="#231815"/>
<path id="Vector_122" d="M326.3 165H328.7V167.7H326.3V165ZM326.3 170.3H328.7V184.3H326.3V170.3Z" fill="#231815"/>
<path id="Vector_123" d="M333.7 179.8C334 181.7 335.2 182.7 337.3 182.7C339.2 182.7 340.5 181.8 340.5 180.5C340.5 179.5 339.9 179 338.2 178.6L336.6 178.2C335.1 177.8 334.1 177.5 333.4 177C332.4 176.4 331.7 175.3 331.7 174C331.7 171.6 333.8 170 336.9 170C339.4 170 341.2 170.8 342 172.3C342.2 172.8 342.3 173.1 342.5 173.9L340.2 174.2C340 172.7 339 171.9 337.1 171.9C335.2 171.9 334.1 172.6 334.1 173.7C334.1 174.8 334.5 175 337.4 175.8C339.3 176.3 340.1 176.6 340.9 176.9C342.3 177.5 343.1 178.6 343.1 180.2C343.1 182.8 340.8 184.6 337.5 184.6C333.9 184.6 332 183.2 331.5 180.1L333.7 179.8Z" fill="#231815"/>
<path id="Vector_124" d="M351.2 184.3C350.4 184.5 350 184.5 349.4 184.5C347.8 184.5 346.8 184 346.4 183C346.2 182.4 346.1 182.1 346.1 180.2V172.2H344.4V170.4H346.1V166.9L348.5 165.5V170.4H350.9V172.2H348.5V180.4C348.5 182 348.7 182.3 349.8 182.3C350.1 182.3 350.4 182.3 350.8 182.2L351.2 184.3Z" fill="#231815"/>
</g>
<g id="Group 2">
<rect width="136.5" height="20.1001" fill="black" fill-opacity="0" transform="translate(268 198)"/>
<path id="Vector_125" d="M270.4 211.1C270.5 212.1 270.6 212.5 270.9 213.1C271.7 214.6 273.7 215.6 276.1 215.6C279 215.6 280.9 214.3 280.9 212.3C280.9 211.3 280.4 210.4 279.4 210C278.5 209.5 278.1 209.4 275 208.7C272.5 208.1 271.5 207.7 270.5 206.9C269.3 206 268.7 204.7 268.7 203.3C268.7 200.1 271.4 198 275.5 198C279.9 198 282.6 200.2 282.8 203.8L280.3 204C280 201.5 278.5 200.3 275.6 200.3C272.8 200.3 271.2 201.4 271.2 203.2C271.2 204.8 272.1 205.5 275.8 206.3C278.8 207 279.7 207.3 280.9 208C282.5 208.9 283.4 210.5 283.4 212.3C283.4 215.7 280.4 218.1 276.2 218.1C271.1 218.1 268.1 215.7 268 211.6L270.4 211.1Z" fill="#231815"/>
<path id="Vector_126" d="M295.8 215.5C294.7 217.1 293.2 217.9 291.3 217.9C289.5 217.9 287.9 217.1 287.2 215.8C286.6 214.8 286.6 214.3 286.6 212.2V203.5H289V211.2C289 213.1 289 213.3 289.2 214C289.5 215.1 290.6 215.7 291.9 215.7C293.3 215.7 294.6 214.9 295.1 213.8C295.5 213.1 295.6 212.4 295.6 210.9V203.4H297.9V217.4H295.8V215.5V215.5Z" fill="#231815"/>
<path id="Vector_127" d="M301.6 217.6V198.3H304V205.2H304.1C305.1 203.9 306.3 203.3 307.9 203.3C311.5 203.3 313.8 206.1 313.8 210.4C313.8 214.9 311.3 217.9 307.8 217.9C306.2 217.9 304.8 217.2 304 215.8H303.9V217.6H301.6ZM303.8 210.9C303.8 214 305.2 216 307.5 216C309.8 216 311.3 213.9 311.3 210.6C311.3 207.3 309.9 205.3 307.6 205.3C305.3 205.3 303.8 207.2 303.8 210.6V210.9Z" fill="#231815"/>
<path id="Vector_128" d="M316.6 203.6H318.7V205.5H318.8C319.7 204 321.2 203.2 323 203.2C325.1 203.2 326.4 204 327 205.7C328.1 204 329.5 203.2 331.3 203.2C333 203.2 334.4 203.9 335.1 205.2C335.5 206 335.6 206.7 335.6 207.9V217.5H333.3V208.7C333.3 206.2 332.6 205.3 330.8 205.3C329.7 205.3 328.6 205.8 328 206.8C327.5 207.5 327.4 208.1 327.4 209.5V217.6H325.1V208.5C325.1 206.3 324.3 205.3 322.6 205.3C321.4 205.3 320.3 205.9 319.7 206.9C319.3 207.7 319.1 208.5 319.1 210.3V217.6H316.8V203.6H316.6Z" fill="#231815"/>
<path id="Vector_129" d="M339.1 198.2H341.5V200.9H339.1V198.2ZM339.1 203.6H341.5V217.6H339.1V203.6Z" fill="#231815"/>
<path id="Vector_130" d="M346.5 213C346.8 214.9 348 215.9 350.1 215.9C352 215.9 353.3 215 353.3 213.7C353.3 212.7 352.7 212.2 351 211.8L349.4 211.4C347.9 211 346.9 210.7 346.2 210.2C345.2 209.6 344.5 208.5 344.5 207.2C344.5 204.8 346.6 203.2 349.7 203.2C352.2 203.2 354 204 354.8 205.5C355 206 355.1 206.3 355.3 207.1L353 207.4C352.8 205.9 351.8 205.1 349.9 205.1C348 205.1 346.9 205.8 346.9 206.9C346.9 208 347.3 208.2 350.2 209C352.1 209.5 352.9 209.8 353.7 210.1C355.1 210.7 355.9 211.8 355.9 213.4C355.9 216 353.6 217.8 350.3 217.8C346.7 217.8 344.8 216.4 344.3 213.3L346.5 213Z" fill="#231815"/>
<path id="Vector_131" d="M360 213C360.3 214.9 361.5 215.9 363.6 215.9C365.5 215.9 366.8 215 366.8 213.7C366.8 212.7 366.2 212.2 364.5 211.8L362.9 211.4C361.4 211 360.4 210.7 359.7 210.2C358.7 209.6 358 208.5 358 207.2C358 204.8 360.1 203.2 363.2 203.2C365.7 203.2 367.5 204 368.3 205.5C368.5 206 368.6 206.3 368.8 207.1L366.5 207.4C366.3 205.9 365.3 205.1 363.4 205.1C361.5 205.1 360.4 205.8 360.4 206.9C360.4 208 360.8 208.2 363.7 209C365.6 209.5 366.4 209.8 367.2 210.1C368.6 210.7 369.4 211.8 369.4 213.4C369.4 216 367.1 217.8 363.8 217.8C360.2 217.8 358.3 216.4 357.8 213.3L360 213Z" fill="#231815"/>
<path id="Vector_132" d="M372.1 198.2H374.5V200.9H372.1V198.2ZM372.1 203.6H374.5V217.6H372.1V203.6Z" fill="#231815"/>
<path id="Vector_133" d="M380.2 204.3C381.3 203.7 382.5 203.3 383.8 203.3C387.8 203.3 390.4 206.1 390.4 210.4C390.4 213.7 389.5 215.6 387.5 216.9C386.4 217.5 385.2 217.9 383.9 217.9C381 217.9 378.6 216.3 377.8 213.8C377.5 212.8 377.3 211.7 377.3 210.6C377.2 207.5 378.2 205.5 380.2 204.3ZM383.8 215.9C386.4 215.9 387.9 213.9 387.9 210.5C387.9 207.3 386.3 205.2 383.8 205.2C381.2 205.2 379.7 207.2 379.7 210.6C379.7 213.9 381.2 215.9 383.8 215.9Z" fill="#231815"/>
<path id="Vector_134" d="M393.1 203.6H395.2V205.6H395.3C396.3 204.1 397.8 203.3 399.7 203.3C401.6 203.3 403.2 204.1 403.9 205.4C404.4 206.4 404.5 206.8 404.5 209V217.6H402.1V209.1C402.1 207.6 402 207.1 401.6 206.5C401.1 205.8 400.2 205.4 399.2 205.4C397.8 205.4 396.5 206.1 396 207.2C395.6 207.9 395.5 208.7 395.5 210.1V217.7H393.1V203.6V203.6Z" fill="#231815"/>
</g>
</g>
<rect id="hint /for=anchor /href=&#34;/eng&#34;" x="1365" y="143" width="101" height="101" fill="url(#paint1_linear)" fill-opacity="0.01"/>
<rect id="hint /for=anchor /href=&#34;/chi&#34;" x="1265" y="143" width="100" height="101" fill="url(#paint2_linear)" fill-opacity="0.01"/>
<rect id="hint /for=anchor /href=&#34;contact&#34;" x="1124" y="143" width="142" height="101" fill="url(#paint3_linear)" fill-opacity="0.01"/>
<rect id="hint /for=anchor /href=&#34;activities&#34;" x="968" y="143" width="156" height="101" fill="url(#paint4_linear)" fill-opacity="0.01"/>
<rect id="hint /for=anchor /href=&#34;https://goo.gl/NZfpRM&#34;" x="782" y="143" width="186" height="101" fill="url(#paint5_linear)" fill-opacity="0.01"/>
<rect id="hint /for=anchor /href=&#34;rules&#34;" x="570.652" y="143" width="211.348" height="101" fill="url(#paint6_linear)" fill-opacity="0.01"/>
<rect id="hint /for=anchor /href=&#34;news&#34;" x="422" y="143" width="148.652" height="101" fill="url(#paint7_linear)" fill-opacity="0.01"/>
<rect id="hint /for=anchor /href=&#34;submission&#34;" x="239" y="143" width="183" height="101" fill="url(#paint8_linear)" fill-opacity="0.01"/>
</g>
<g id="logo">
<rect width="251" height="218" fill="black" fill-opacity="0" transform="translate(2 75)"/>
<path id="Vector_135" d="M49.1804 131.54H39.7604C36.9997 131.655 34.2825 130.822 32.0602 129.18C31.227 130.37 30.2791 131.475 29.2302 132.48L27.8205 131.12C28.8974 130.128 29.863 129.021 30.7004 127.82C29.7169 126.604 28.9057 125.258 28.2902 123.82L29.8102 122.95C30.3204 124.086 30.9434 125.168 31.6701 126.18C32.3752 124.792 32.7646 123.266 32.8102 121.71H28.5905V120.2C30.2839 118.446 31.6667 116.417 32.6804 114.2H28.1701V112.39H34.6701V114.03C33.7874 116.152 32.5834 118.125 31.1003 119.88H34.6403C34.6371 122.507 34.046 125.101 32.9103 127.47C35.2603 129.68 38.7402 129.75 42.3102 129.68C44.3102 129.68 47.1705 129.58 49.8805 129.43L49.1804 131.54ZM40.3503 129.38V127.05H34.7204V125.2H40.3303V123.73H35.6403V121.95H40.3102V120.48H36.0905V118.67H40.3102V117.18H34.4802V115.39H40.3102V114.05H36.1105V112.26H40.3102V110.3H42.1901V112.24H47.5705V115.39H49.1804V117.2H47.5705V120.52H42.1603V122.01H47.8703V123.82H42.1901V125.29H49.2404V127.1H42.1701V129.46L40.3503 129.38ZM42.2101 114.05V115.41H45.7302V114.05H42.2101ZM45.7302 118.71V117.2H42.2101V118.72L45.7302 118.71Z" fill="black"/>
<path id="Vector_136" d="M67.0505 120.25H71.9104V119.33H65.7605V117.54H69.3806V116.4H67.5706V114.78H69.3606V113.78H66.5603V111.96H69.3606V110.28H71.2205V111.96H74.4705V110.23H76.3303V111.96H79.1604V113.75H76.3005V114.69H78.2205V116.31H76.3303V117.45H80.0603V119.24H73.7302V120.18H78.6702V126.38H80.7503V128.17H78.6902C78.6902 129.78 78.6103 130.85 78.0203 131.42C77.1703 132.21 75.7803 131.99 74.7703 131.92L74.1204 130.08C74.8268 130.204 75.5434 130.26 76.2605 130.25C76.4178 130.233 76.563 130.158 76.6682 130.039C76.7735 129.921 76.8313 129.768 76.8303 129.61V128.17H68.9202V132.34H67.0305V128.17H65.2903V126.36H67.0305V123L65.6404 123.65C65.2653 122.773 64.7561 121.96 64.1306 121.24V132.48H62.2703V122.53C61.6405 124.043 60.8061 125.463 59.7903 126.75L58.1502 125.63C60.163 123.068 61.5502 120.072 62.2004 116.88H59.2703V115.07H62.2703V110.36H64.1306V115.05H66.6106V116.84H64.1306V119.24L64.5803 119.07C65.4991 120.176 66.3032 121.372 66.9802 122.64L67.0505 120.25ZM71.9104 122.04H68.9104V123.33H71.8904L71.9104 122.04ZM68.9104 125.14V126.45H71.8904V125.14H68.9104ZM71.2405 114.74H74.5105V113.74H71.2405V114.74ZM74.4905 117.52V116.36H71.2205V117.52H74.4905ZM76.8504 123.33V122.04H73.7703V123.33H76.8504ZM76.8504 125.11H73.7703V126.43H76.8806L76.8504 125.11Z" fill="black"/>
<path id="Vector_137" d="M91.1697 125.83V114.83H99.2801V110.29H101.28V114.81H109.36V125.7H107.36V124.02H101.24V132.38H99.24V124.02H93.1599L93.1101 125.8L91.1697 125.83ZM99.26 116.65H93.1302V122.26H99.2801L99.26 116.65ZM107.26 116.65H101.26V122.2H107.31L107.26 116.65Z" fill="black"/>
<path id="Vector_138" d="M135.591 110.45C135.302 111.718 134.944 112.97 134.52 114.2H141.221C141.101 119.48 141.271 125.14 139.661 130C139.539 130.479 139.301 130.92 138.968 131.284C138.635 131.649 138.216 131.926 137.75 132.09C136.65 132.28 134.601 131.66 133.331 131.32L133.011 129.23C134.216 129.701 135.47 130.037 136.75 130.23C136.942 130.282 137.146 130.267 137.328 130.187C137.51 130.106 137.659 129.967 137.75 129.79C138.125 128.845 138.396 127.863 138.561 126.86C139.098 123.218 139.372 119.542 139.381 115.86H134.101C133.407 117.725 132.436 119.475 131.221 121.05L129.931 120.23V131.67H128.02C127.95 130.78 128.02 130.06 128.02 129.67H123.851V131.67H121.851V114.59H124.131C124.869 113.218 125.382 111.735 125.65 110.2L127.44 110.92C127.15 112.195 126.7 113.428 126.101 114.59H129.891V119.48C131.879 116.665 133.162 113.414 133.631 110L135.591 110.45ZM123.75 116.36V121.17H127.871V116.34L123.75 116.36ZM127.951 127.97V122.97H123.831V127.97H127.951ZM136.061 126.28C135.245 124.172 134.105 122.205 132.681 120.45L134.221 119.45C135.817 121.212 137.05 123.271 137.851 125.51L136.061 126.28Z" fill="black"/>
<path id="Vector_139" d="M154.571 122.78C155.975 121.905 156.983 120.516 157.381 118.91H155.19V117.2H158.761V116.13C157.821 116.23 157.08 116.38 155.94 116.41L155.02 114.79C158.29 114.57 160.021 114.49 162.241 113.45L163.111 114.92C162.329 115.34 161.503 115.675 160.65 115.92V117.2H163.181V118.94H160.65V119.38L161.17 119.16C162.105 119.664 162.918 120.367 163.551 121.22L162.131 122.22C161.745 121.64 161.248 121.14 160.67 120.75V124.75H158.801V119.9C158.276 121.618 157.205 123.117 155.75 124.17L154.591 123.23C154.491 126.11 154.07 129.55 151.98 132.46L150.52 131.12C152.046 128.76 152.807 125.988 152.701 123.18V111.47H172.071V113.28H154.58L154.571 122.78ZM172.571 131.22H154.451V129.43H157.451V125.63H159.31V129.43H162.411V124.43H164.301V125.74H169.761V127.53H164.281V129.42H172.571V131.22ZM170.85 123.75C170.278 122.564 169.46 121.514 168.451 120.67V124.59H166.56V119.9C165.91 121.589 164.736 123.026 163.21 124C162.71 123.65 162.34 123.25 161.79 122.81C163.354 121.992 164.545 120.608 165.12 118.94H163.531V117.2H166.531V116.01C165.931 116.01 165.161 116.18 164.241 116.23L163.381 114.59C165.815 114.594 168.23 114.174 170.52 113.35L171.44 114.72C170.453 115.117 169.433 115.425 168.391 115.64V117.2H171.591V118.94H168.37V119.43L168.891 119.01C170.309 120.012 171.488 121.317 172.341 122.83L170.85 123.75Z" fill="black"/>
<path id="Vector_140" d="M202.811 132.41C198.533 132.161 194.345 131.08 190.481 129.23C188.791 130.55 186.611 131.66 182.541 132.41L181.791 130.41C184.521 130.04 186.931 129.51 188.791 128.13C187.297 127.201 186.018 125.963 185.041 124.5L186.501 123.34C187.512 124.724 188.778 125.902 190.231 126.81C191.136 125.54 191.644 124.029 191.691 122.47H184.491V114.01H191.691V110.01H193.601V114.01H200.601V122.47H193.701C193.574 124.338 192.987 126.145 191.991 127.73C193.551 128.97 199.361 130.41 203.881 130.36L202.811 132.41ZM191.671 115.91H186.381V120.67H191.671V115.91ZM198.671 120.67V115.91H193.561V120.7L198.671 120.67Z" fill="black"/>
<path id="Vector_141" d="M26.9999 150.84H29.9999V160.12H41.7401V150.84H44.7401V173.44H41.7401V162.8H29.9999V173.44H26.9999V150.84Z" fill="black"/>
<path id="Vector_142" d="M50.1602 150.84H53.1602V173.44H50.1602V150.84Z" fill="black"/>
<path id="Vector_143" d="M60.3011 165.93C60.3109 166.734 60.5165 167.524 60.9007 168.23C61.9007 170.03 64.1808 171.14 66.9608 171.14C70.3408 171.14 72.5511 169.62 72.5511 167.28C72.5571 166.708 72.399 166.146 72.096 165.66C71.793 165.175 71.3578 164.786 70.8411 164.54C69.7711 163.97 69.3008 163.81 65.7308 162.96C62.7308 162.23 61.6507 161.82 60.4207 160.96C59.7636 160.47 59.2326 159.831 58.8709 159.096C58.5093 158.36 58.3277 157.549 58.3411 156.73C58.3411 153 61.5311 150.51 66.2611 150.51C71.4111 150.51 74.6011 153.03 74.7611 157.26L71.8812 157.48C71.5712 154.48 69.8309 153.16 66.3909 153.16C63.1709 153.16 61.2108 154.42 61.2108 156.54C61.2108 158.43 62.3209 159.19 66.5809 160.14C70.1209 160.93 71.1909 161.27 72.5809 162.14C73.4626 162.641 74.1943 163.369 74.699 164.248C75.2038 165.127 75.4634 166.126 75.451 167.14C75.451 171.09 71.9811 173.9 67.0911 173.9C61.0911 173.9 57.5808 171.09 57.4608 166.26L60.3011 165.93Z" fill="black"/>
<path id="Vector_144" d="M85.2013 153.52H77.7814V150.84H95.6813V153.52H88.2013V173.44H85.2013V153.52Z" fill="black"/>
<path id="Vector_145" d="M108.65 150.46C115.09 150.46 119.48 155.16 119.48 162.17C119.48 169.18 115.06 173.82 108.65 173.82C102.24 173.82 97.8906 169.05 97.8906 162.2C97.8906 155.2 102.18 150.46 108.65 150.46ZM108.65 171.26C113.36 171.26 116.391 167.73 116.391 162.17C116.391 156.61 113.391 153.01 108.721 153.01C103.891 153.01 100.951 156.49 100.951 162.2C100.951 167.73 103.95 171.26 108.65 171.26Z" fill="black"/>
<path id="Vector_146" d="M123.45 150.84H133.45C134.993 150.716 136.543 150.92 138 151.44C139.081 151.899 139.998 152.675 140.628 153.666C141.259 154.657 141.573 155.816 141.531 156.99C141.531 160.47 139.32 162.58 135.16 163.12V163.2C135.893 163.476 136.558 163.906 137.111 164.46C137.994 165.308 138.77 166.262 139.42 167.3L143.37 173.46H139.611L136.611 168.76C135.917 167.602 135.146 166.493 134.301 165.44C133.845 164.843 133.278 164.34 132.631 163.96C131.841 163.49 131.53 163.42 129.92 163.42H126.44V173.42H123.44L123.45 150.84ZM132.89 160.84C134.119 160.949 135.356 160.754 136.491 160.27C137.092 159.974 137.598 159.516 137.951 158.946C138.305 158.377 138.492 157.72 138.491 157.05C138.494 156.432 138.334 155.825 138.029 155.288C137.724 154.751 137.283 154.303 136.75 153.99C135.785 153.507 134.708 153.29 133.631 153.36H126.491V160.84H132.89Z" fill="black"/>
<path id="Vector_147" d="M152.531 163.88L143.81 150.88H147.44L151.891 157.7C152.653 158.781 153.35 159.907 153.98 161.07L154.201 161.52C154.861 160.35 155.781 158.9 156.661 157.52L161.051 150.86H164.52L155.52 163.86V173.42H152.52L152.531 163.88Z" fill="black"/>
<path id="Vector_148" d="M176.451 150.84H179.451V173.44H176.451V150.84Z" fill="black"/>
<path id="Vector_149" d="M186.58 165.93C186.595 166.733 186.8 167.522 187.18 168.23C188.18 170.03 190.47 171.14 193.24 171.14C196.62 171.14 198.83 169.62 198.83 167.28C198.837 166.709 198.681 166.148 198.379 165.662C198.078 165.177 197.645 164.787 197.13 164.54C196.05 163.97 195.58 163.81 192.01 162.96C189.01 162.23 187.94 161.82 186.71 160.96C186.05 160.472 185.516 159.834 185.152 159.098C184.789 158.363 184.606 157.551 184.62 156.73C184.62 153 187.81 150.51 192.55 150.51C197.69 150.51 200.88 153.03 201.04 157.26L198.17 157.48C197.85 154.48 196.12 153.16 192.68 153.16C189.45 153.16 187.5 154.42 187.5 156.54C187.5 158.43 188.6 159.19 192.86 160.14C196.4 160.93 197.47 161.27 198.86 162.14C199.743 162.64 200.476 163.368 200.983 164.247C201.489 165.126 201.751 166.125 201.74 167.14C201.74 171.09 198.26 173.9 193.37 173.9C187.37 173.9 183.87 171.09 183.74 166.26L186.58 165.93Z" fill="black"/>
<path id="Vector_150" d="M102.81 188.71H105.81V211.32H102.81V188.71Z" fill="black"/>
<path id="Vector_151" d="M111.151 188.71H114.211L123.991 203.36C124.997 204.761 125.874 206.251 126.611 207.81L126.681 207.75C126.385 205.955 126.224 204.139 126.201 202.32L126.081 188.71H128.951V211.32H125.891L114.521 194.32C114.173 193.829 113.878 193.303 113.641 192.75L113.581 192.81V193.28C113.641 194.28 113.741 195.28 113.741 195.84L113.991 211.28H111.121L111.151 188.71Z" fill="black"/>
<path id="Vector_152" d="M148.361 191.4H140.94V188.71H158.89V191.4H151.41V211.32H148.41L148.361 191.4Z" fill="black"/>
<path id="Vector_153" d="M162.06 188.71H165.06V197.99H176.801V188.71H179.801V211.32H176.801V200.68H165.06V211.32H162.06V188.71Z" fill="black"/>
<path id="Vector_154" d="M184.81 188.71H201.17V191.4H187.81V198.31H200.31V200.96H187.81V208.67H201.701V211.32H184.81V188.71Z" fill="black"/>
<path id="Vector_155" d="M81.1904 226.59H85.5805L91.0405 242.78C91.4505 244.05 91.8605 245.25 92.0405 246.13H92.1108C92.4508 244.93 92.7405 244.13 93.3105 242.5L98.8305 226.59H102.71V249.2H99.7104L100.161 231.34V229.98V229.47L100.101 229.41L99.9404 230.1L99.1806 232.22L93.2407 249.22H90.5605L83.8906 229.4L83.8208 229.46V230V232.53L84.1606 249.19H81.1005L81.1904 226.59Z" fill="black"/>
<path id="Vector_156" d="M113.801 226.59H117.02L126.24 249.19H122.89L120.24 242.34H110.801L108.301 249.19H105.15L113.801 226.59ZM119.29 239.91L116.92 233.66C116.297 232.132 115.782 230.561 115.381 228.96H115.31C115.022 230.429 114.621 231.873 114.111 233.28L111.62 239.91H119.29Z" fill="black"/>
<path id="Vector_157" d="M128.54 226.59H131.54V237.8L142.781 226.59H146.781L137.31 235.74L147.19 249.2H143.25L135.25 237.78L131.52 241.38V249.2H128.52L128.54 226.59Z" fill="black"/>
<path id="Vector_158" d="M150.16 226.59H153.16V249.2H150.16V226.59Z" fill="black"/>
<path id="Vector_159" d="M158.491 226.59H161.551L171.341 241.24C172.345 242.642 173.221 244.132 173.96 245.69L174.02 245.63C173.728 243.834 173.571 242.019 173.551 240.2L173.42 226.59H176.301V249.2H173.23L161.89 232.2C161.535 231.709 161.236 231.179 161 230.62L160.94 230.69V231.16C161.01 232.16 161.1 233.16 161.1 233.72L161.35 249.15H158.48L158.491 226.59Z" fill="black"/>
<path id="Vector_160" d="M201.361 246.04C198.758 248.303 195.429 249.555 191.981 249.57C185.041 249.57 180.461 244.99 180.461 237.99C180.461 233.38 182.511 229.37 185.791 227.6C187.645 226.647 189.707 226.169 191.791 226.21C195.711 226.21 198.671 227.69 200.131 230.38C200.553 231.172 200.859 232.021 201.041 232.9L198.331 233.66C198.174 232.961 197.918 232.287 197.571 231.66C196.957 230.711 196.099 229.944 195.088 229.44C194.076 228.935 192.949 228.71 191.821 228.79C186.641 228.79 183.551 232.17 183.551 237.79C183.551 243.41 186.641 246.88 191.891 246.88C193.603 246.867 195.285 246.424 196.781 245.59C197.389 245.329 197.952 244.975 198.451 244.54V240.31H191.821V237.66H201.391L201.361 246.04Z" fill="black"/>
<g id="Vector_161">
<path d="M227.371 113.29V257.29" stroke="black" stroke-width="2" stroke-miterlimit="10"/>
</g>
<rect id="hint /for=anchor /href=&#34;/&#34;" x="2" y="75" width="251" height="218" fill="url(#paint9_linear)" fill-opacity="0.01"/>
</g>
<path id="breadcrumb" d="M261.998 240.5H412.002" stroke="#231815" stroke-width="5" stroke-miterlimit="10"/>
</g>
<defs>
<linearGradient id="paint0_linear" x1="688" y1="1281" x2="688" y2="1377" gradientUnits="userSpaceOnUse">
<stop stop-color="white" stop-opacity="0.01"/>
<stop offset="1" stop-color="white" stop-opacity="0"/>
</linearGradient>
<linearGradient id="paint1_linear" x1="1415.5" y1="143" x2="1415.5" y2="244" gradientUnits="userSpaceOnUse">
<stop stop-color="white" stop-opacity="0.01"/>
<stop offset="1" stop-color="white" stop-opacity="0"/>
</linearGradient>
<linearGradient id="paint2_linear" x1="1315" y1="143" x2="1315" y2="244" gradientUnits="userSpaceOnUse">
<stop stop-color="white" stop-opacity="0.01"/>
<stop offset="1" stop-color="white" stop-opacity="0"/>
</linearGradient>
<linearGradient id="paint3_linear" x1="1195" y1="143" x2="1195" y2="244" gradientUnits="userSpaceOnUse">
<stop stop-color="white" stop-opacity="0.01"/>
<stop offset="1" stop-color="white" stop-opacity="0"/>
</linearGradient>
<linearGradient id="paint4_linear" x1="1046" y1="143" x2="1046" y2="244" gradientUnits="userSpaceOnUse">
<stop stop-color="white" stop-opacity="0.01"/>
<stop offset="1" stop-color="white" stop-opacity="0"/>
</linearGradient>
<linearGradient id="paint5_linear" x1="875" y1="143" x2="875" y2="244" gradientUnits="userSpaceOnUse">
<stop stop-color="white" stop-opacity="0.01"/>
<stop offset="1" stop-color="white" stop-opacity="0"/>
</linearGradient>
<linearGradient id="paint6_linear" x1="676.326" y1="143" x2="676.326" y2="244" gradientUnits="userSpaceOnUse">
<stop stop-color="white" stop-opacity="0.01"/>
<stop offset="1" stop-color="white" stop-opacity="0"/>
</linearGradient>
<linearGradient id="paint7_linear" x1="496.326" y1="143" x2="496.326" y2="244" gradientUnits="userSpaceOnUse">
<stop stop-color="white" stop-opacity="0.01"/>
<stop offset="1" stop-color="white" stop-opacity="0"/>
</linearGradient>
<linearGradient id="paint8_linear" x1="330.5" y1="143" x2="330.5" y2="244" gradientUnits="userSpaceOnUse">
<stop stop-color="white" stop-opacity="0.01"/>
<stop offset="1" stop-color="white" stop-opacity="0"/>
</linearGradient>
<linearGradient id="paint9_linear" x1="127.5" y1="75" x2="127.5" y2="293" gradientUnits="userSpaceOnUse">
<stop stop-color="white" stop-opacity="0.01"/>
<stop offset="1" stop-color="white" stop-opacity="0"/>
</linearGradient>
<clipPath id="clip0">
<rect width="1440" height="1611" fill="white"/>
</clipPath>
</defs>
</svg>
